<svg width="386" height="295" viewBox="0 0 386 295" fill="none" xmlns="http://www.w3.org/2000/svg">
<path d="M386 260.025H0V260.218H386V260.025Z" fill="#EBEBEB"/>
<path d="M347.322 272.447H327.25V272.64H347.322V272.447Z" fill="#EBEBEB"/>
<path d="M274.857 274.547H240.094V274.74H274.857V274.547Z" fill="#EBEBEB"/>
<path d="M326.481 265.283H279.551V265.476H326.481V265.283Z" fill="#EBEBEB"/>
<path d="M55.3456 266.58H40.5V266.773H55.3456V266.58Z" fill="#EBEBEB"/>
<path d="M104.907 266.58H62.2227V266.773H104.907V266.58Z" fill="#EBEBEB"/>
<path d="M188.475 269.838H130.984V270.031H188.475V269.838Z" fill="#EBEBEB"/>
<path d="M140.743 82.8887H62.2227V260.024H140.743V82.8887Z" fill="#F5F5F5"/>
<path d="M133.365 89.1035H69.5898V253.802H133.365V89.1035Z" fill="#E6E6E6"/>
<path d="M128.985 96.8242H73.9805V100.592H128.985V96.8242Z" fill="#FAFAFA"/>
<path d="M128.985 105.385H73.9805V109.152H128.985V105.385Z" fill="#FAFAFA"/>
<path d="M128.985 113.939H73.9805V117.707H128.985V113.939Z" fill="#FAFAFA"/>
<path d="M128.985 122.5H73.9805V126.267H128.985V122.5Z" fill="#FAFAFA"/>
<path d="M128.985 131.062H73.9805V134.83H128.985V131.062Z" fill="#FAFAFA"/>
<path d="M128.985 139.615H73.9805V143.383H128.985V139.615Z" fill="#FAFAFA"/>
<path d="M128.985 148.178H73.9805V151.945H128.985V148.178Z" fill="#FAFAFA"/>
<path d="M128.985 156.73H73.9805V160.498H128.985V156.73Z" fill="#FAFAFA"/>
<path d="M128.985 165.293H73.9805V169.06H128.985V165.293Z" fill="#FAFAFA"/>
<path d="M128.985 173.854H73.9805V177.621H128.985V173.854Z" fill="#FAFAFA"/>
<path d="M128.985 182.408H73.9805V186.176H128.985V182.408Z" fill="#FAFAFA"/>
<path d="M128.985 190.969H73.9805V194.736H128.985V190.969Z" fill="#FAFAFA"/>
<path d="M128.985 199.523H73.9805V203.291H128.985V199.523Z" fill="#FAFAFA"/>
<path d="M128.985 208.084H73.9805V211.851H128.985V208.084Z" fill="#FAFAFA"/>
<path d="M128.985 216.646H73.9805V220.414H128.985V216.646Z" fill="#FAFAFA"/>
<path d="M128.985 225.199H73.9805V228.967H128.985V225.199Z" fill="#FAFAFA"/>
<path d="M128.985 233.762H73.9805V237.529H128.985V233.762Z" fill="#FAFAFA"/>
<path d="M128.985 242.314H73.9805V246.082H128.985V242.314Z" fill="#FAFAFA"/>
<path d="M40.4986 260.018H62.2227L62.2227 82.8822H40.4986L40.4986 260.018Z" fill="#E6E6E6"/>
<path d="M129.949 79.8398H68.3281V82.8892H129.949V79.8398Z" fill="#F0F0F0"/>
<path d="M51.2824 82.8887H68.3281V79.8393H51.2824V82.8887Z" fill="#E0E0E0"/>
<path d="M58.3234 95.921C59.6238 95.921 60.6779 93.3494 60.6779 90.1773C60.6779 87.0051 59.6238 84.4336 58.3234 84.4336C57.0229 84.4336 55.9688 87.0051 55.9688 90.1773C55.9688 93.3494 57.0229 95.921 58.3234 95.921Z" fill="#F5F5F5"/>
<path d="M41.2695 90.1777C41.2695 93.3507 41.9798 95.9214 42.8599 95.9214C43.7399 95.9214 44.4502 93.3507 44.4502 90.1777C44.4502 87.0048 43.7399 84.4727 42.8599 84.4727C41.9798 84.4727 41.2695 87.0048 41.2695 90.1777Z" fill="#F5F5F5"/>
<path d="M58.3234 258.474C59.6238 258.474 60.6779 255.902 60.6779 252.73C60.6779 249.558 59.6238 246.986 58.3234 246.986C57.0229 246.986 55.9688 249.558 55.9688 252.73C55.9688 255.902 57.0229 258.474 58.3234 258.474Z" fill="#F5F5F5"/>
<path d="M41.2695 252.769C41.2695 255.95 41.9798 258.52 42.8599 258.52C43.7399 258.52 44.4502 255.95 44.4502 252.769C44.4502 249.588 43.7399 247.025 42.8599 247.025C41.9798 247.025 41.2695 249.558 41.2695 252.769Z" fill="#F5F5F5"/>
<path d="M286.921 122.393H225.918V260.017H286.921V122.393Z" fill="#F5F5F5"/>
<path d="M281.191 127.227H231.637V255.193H281.191V127.227Z" fill="#E6E6E6"/>
<path d="M277.789 133.225H235.051V136.15H277.789V133.225Z" fill="#FAFAFA"/>
<path d="M277.789 139.879H235.051V142.805H277.789V139.879Z" fill="#FAFAFA"/>
<path d="M277.789 146.527H235.051V149.453H277.789V146.527Z" fill="#FAFAFA"/>
<path d="M277.789 153.172H235.051V156.098H277.789V153.172Z" fill="#FAFAFA"/>
<path d="M277.789 159.828H235.051V162.754H277.789V159.828Z" fill="#FAFAFA"/>
<path d="M277.789 166.475H235.051V169.4H277.789V166.475Z" fill="#FAFAFA"/>
<path d="M277.789 173.121H235.051V176.047H277.789V173.121Z" fill="#FAFAFA"/>
<path d="M277.789 179.775H235.051V182.701H277.789V179.775Z" fill="#FAFAFA"/>
<path d="M277.789 186.422H235.051V189.348H277.789V186.422Z" fill="#FAFAFA"/>
<path d="M277.789 193.07H235.051V195.996H277.789V193.07Z" fill="#FAFAFA"/>
<path d="M277.789 199.725H235.051V202.65H277.789V199.725Z" fill="#FAFAFA"/>
<path d="M277.789 206.371H235.051V209.297H277.789V206.371Z" fill="#FAFAFA"/>
<path d="M277.789 213.018H235.051V215.943H277.789V213.018Z" fill="#FAFAFA"/>
<path d="M277.789 219.672H235.051V222.598H277.789V219.672Z" fill="#FAFAFA"/>
<path d="M277.789 226.32H235.051V229.246H277.789V226.32Z" fill="#FAFAFA"/>
<path d="M277.789 232.967H235.051V235.893H277.789V232.967Z" fill="#FAFAFA"/>
<path d="M277.789 239.621H235.051V242.547H277.789V239.621Z" fill="#FAFAFA"/>
<path d="M277.789 246.268H235.051V249.193H277.789V246.268Z" fill="#FAFAFA"/>
<path d="M209.042 260.025H225.918L225.918 122.401H209.042L209.042 260.025Z" fill="#E6E6E6"/>
<path d="M278.543 120.031H230.664V122.401H278.543V120.031Z" fill="#F0F0F0"/>
<path d="M217.409 122.393H230.656V120.023H217.409V122.393Z" fill="#E0E0E0"/>
<path d="M221.062 128.06C221.062 130.53 221.881 132.53 222.884 132.53C223.888 132.53 224.714 130.53 224.714 128.06C224.714 125.589 223.896 123.598 222.884 123.598C221.873 123.598 221.062 125.597 221.062 128.06Z" fill="#F5F5F5"/>
<path d="M209.637 128.06C209.637 130.53 210.193 132.53 210.872 132.53C211.551 132.53 212.115 130.53 212.115 128.06C212.115 125.589 211.559 123.598 210.872 123.598C210.185 123.598 209.637 125.597 209.637 128.06Z" fill="#F5F5F5"/>
<path d="M221.062 254.359C221.062 256.829 221.881 258.821 222.884 258.821C223.888 258.821 224.714 256.829 224.714 254.359C224.714 251.888 223.896 249.896 222.884 249.896C221.873 249.896 221.062 251.896 221.062 254.359Z" fill="#F5F5F5"/>
<path d="M209.637 254.359C209.637 256.829 210.193 258.821 210.872 258.821C211.551 258.821 212.115 256.829 212.115 254.359C212.115 251.888 211.559 249.896 210.872 249.896C210.185 249.896 209.637 251.896 209.637 254.359Z" fill="#F5F5F5"/>
<path d="M222.883 128.477H186.892C184.507 128.475 182.22 127.527 180.532 125.841C178.845 124.155 177.895 121.868 177.891 119.483V107.324C177.889 105.143 177.022 103.052 175.481 101.51C173.94 99.9669 171.85 99.0984 169.669 99.0943H140.734V98.3223H169.669C172.054 98.3264 174.341 99.2763 176.027 100.964C177.713 102.651 178.661 104.938 178.663 107.324V119.452C178.661 120.534 178.872 121.606 179.285 122.607C179.697 123.608 180.303 124.517 181.067 125.284C181.831 126.05 182.739 126.658 183.739 127.074C184.738 127.489 185.81 127.704 186.892 127.705H222.883V128.477Z" fill="#E0E0E0"/>
<path d="M210.871 254.744H199.947C197.563 254.74 195.277 253.791 193.592 252.106C191.906 250.42 190.957 248.135 190.953 245.751V175.082C190.949 172.901 190.08 170.811 188.538 169.27C186.995 167.729 184.904 166.862 182.723 166.86H140.734V166.088H182.754C185.14 166.09 187.427 167.038 189.114 168.724C190.802 170.41 191.752 172.696 191.756 175.082V245.751C191.76 247.925 192.623 250.009 194.158 251.549C195.692 253.089 197.773 253.96 199.947 253.972H210.84L210.871 254.744Z" fill="#E0E0E0"/>
<path d="M333.227 41.0156H292.473V45.1844H333.227V41.0156Z" fill="#F0F0F0"/>
<path d="M281.194 45.1934H292.473V41.0246H281.194V45.1934Z" fill="#E0E0E0"/>
<path d="M333.227 30.8105H292.473V34.9793H333.227V30.8105Z" fill="#F0F0F0"/>
<path d="M281.194 34.9707H292.473V30.8019H281.194V34.9707Z" fill="#E0E0E0"/>
<path d="M333.227 20.5977H292.473V24.7665H333.227V20.5977Z" fill="#F0F0F0"/>
<path d="M281.194 24.7656H292.473V20.5968H281.194V24.7656Z" fill="#E0E0E0"/>
<path d="M333.227 10.3828H292.473V14.5516H333.227V10.3828Z" fill="#F0F0F0"/>
<path d="M281.194 14.5527L292.473 14.5527V10.3839L281.194 10.3839V14.5527Z" fill="#E0E0E0"/>
<g opacity="0.4">
<path d="M329.166 0.0078125H294.773V41.0242H329.166V0.0078125Z" fill="#F0F0F0"/>
<path d="M285.255 41.0156H294.773V-0.000740051H285.255V41.0156Z" fill="#E0E0E0"/>
</g>
<path d="M228.034 108.82H198.273V111.862H228.034V108.82Z" fill="#F0F0F0"/>
<path d="M190.044 111.863H198.273V108.822H190.044V111.863Z" fill="#E0E0E0"/>
<path d="M228.034 101.363H198.273V104.405H228.034V101.363Z" fill="#F0F0F0"/>
<path d="M190.044 104.406H198.273V101.365H190.044V104.406Z" fill="#E0E0E0"/>
<path d="M228.034 93.9062H198.273V96.9479H228.034V93.9062Z" fill="#F0F0F0"/>
<path d="M190.044 96.9551H198.273V93.9134H190.044V96.9551Z" fill="#E0E0E0"/>
<path d="M228.034 86.4492H198.273V89.4909H228.034V86.4492Z" fill="#F0F0F0"/>
<path d="M190.044 89.498H198.273V86.4564H190.044V89.498Z" fill="#E0E0E0"/>
<g opacity="0.4">
<path d="M225.07 78.875H199.957V108.821H225.07V78.875Z" fill="#F0F0F0"/>
<path d="M193.009 108.82H199.957V78.8744H193.009V108.82Z" fill="#E0E0E0"/>
</g>
<path d="M364.986 205.328H326.633V209.25H364.986V205.328Z" fill="#F0F0F0"/>
<path d="M316.026 209.25H326.633V205.328H316.026V209.25Z" fill="#E0E0E0"/>
<path d="M364.986 195.717H326.633V199.639H364.986V195.717Z" fill="#F0F0F0"/>
<path d="M316.026 199.639H326.633V195.717H316.026V199.639Z" fill="#E0E0E0"/>
<path d="M364.986 186.105H326.633V190.027H364.986V186.105Z" fill="#F0F0F0"/>
<path d="M316.026 190.035H326.633V186.113H316.026V190.035Z" fill="#E0E0E0"/>
<path d="M364.986 176.502H326.633V180.424H364.986V176.502Z" fill="#F0F0F0"/>
<path d="M316.026 180.416H326.633V176.494H316.026V180.416Z" fill="#E0E0E0"/>
<g opacity="0.4">
<path d="M361.167 166.729H328.797V205.329H361.167V166.729Z" fill="#F0F0F0"/>
<path d="M319.849 205.328H328.805V166.728H319.849V205.328Z" fill="#E0E0E0"/>
</g>
<path d="M192.999 294.888C275.667 294.888 342.683 290.976 342.683 286.149C342.683 281.323 275.667 277.41 192.999 277.41C110.332 277.41 43.3164 281.323 43.3164 286.149C43.3164 290.976 110.332 294.888 192.999 294.888Z" fill="#F5F5F5"/>
<path d="M329.93 53.8086H245.867V134.436H329.93V53.8086Z" fill="#35A29F"/>
<path opacity="0.4" d="M329.93 53.8086H245.867V134.436H329.93V53.8086Z" fill="white"/>
<path opacity="0.7" d="M329.923 53.8086H272.625V134.436H329.923V53.8086Z" fill="white"/>
<path d="M327.058 57.9238H275.488V67.9058H327.058V57.9238Z" fill="#35A29F"/>
<path d="M327.058 70.4062H275.488V80.3882H327.058V70.4062Z" fill="#35A29F"/>
<path d="M327.058 82.8906H275.488V92.8726H327.058V82.8906Z" fill="#35A29F"/>
<path d="M327.058 95.3652H275.488V105.347H327.058V95.3652Z" fill="#35A29F"/>
<path d="M327.058 107.848H275.488V117.83H327.058V107.848Z" fill="#35A29F"/>
<path d="M327.058 120.332H275.488V130.314H327.058V120.332Z" fill="#35A29F"/>
<path d="M269.626 57.9238H248.867V67.9058H269.626V57.9238Z" fill="#35A29F"/>
<path d="M269.626 70.4062H248.867V80.3882H269.626V70.4062Z" fill="#35A29F"/>
<path d="M269.626 82.8906H248.867V92.8726H269.626V82.8906Z" fill="#35A29F"/>
<path d="M269.626 95.3652H248.867V105.347H269.626V95.3652Z" fill="#35A29F"/>
<path d="M269.626 107.848H248.867V117.83H269.626V107.848Z" fill="#35A29F"/>
<path d="M269.626 120.332H248.867V130.314H269.626V120.332Z" fill="#35A29F"/>
<path opacity="0.4" d="M260.528 59.9219H250.785V65.9126H260.528V59.9219Z" fill="#263238"/>
<path opacity="0.4" d="M260.528 72.3984H250.785V78.3892H260.528V72.3984Z" fill="#263238"/>
<path opacity="0.4" d="M260.528 84.8809H250.785V90.8716H260.528V84.8809Z" fill="#263238"/>
<path opacity="0.4" d="M260.528 97.3652H250.785V103.356H260.528V97.3652Z" fill="#263238"/>
<path opacity="0.4" d="M260.528 109.848H250.785V115.838H260.528V109.848Z" fill="#263238"/>
<path opacity="0.4" d="M260.528 122.332H250.785V128.323H260.528V122.332Z" fill="#263238"/>
<path opacity="0.7" d="M324.532 59.2207H323.328V66.601H324.532V59.2207Z" fill="white"/>
<path opacity="0.7" d="M322.216 59.2207H321.012V66.601H322.216V59.2207Z" fill="white"/>
<path opacity="0.7" d="M319.9 59.2207H318.695V66.601H319.9V59.2207Z" fill="white"/>
<path opacity="0.7" d="M317.583 59.2207H316.379V66.601H317.583V59.2207Z" fill="white"/>
<path opacity="0.7" d="M315.267 59.2207H314.062V66.601H315.267V59.2207Z" fill="white"/>
<path opacity="0.7" d="M324.532 71.7031H323.328V79.0834H324.532V71.7031Z" fill="white"/>
<path opacity="0.7" d="M322.216 71.7031H321.012V79.0834H322.216V71.7031Z" fill="white"/>
<path opacity="0.7" d="M319.9 71.7031H318.695V79.0834H319.9V71.7031Z" fill="white"/>
<path opacity="0.7" d="M317.583 71.7031H316.379V79.0834H317.583V71.7031Z" fill="white"/>
<path opacity="0.7" d="M315.267 71.7031H314.062V79.0834H315.267V71.7031Z" fill="white"/>
<path opacity="0.7" d="M324.532 84.1875H323.328V91.5678H324.532V84.1875Z" fill="white"/>
<path opacity="0.7" d="M322.216 84.1875H321.012V91.5678H322.216V84.1875Z" fill="white"/>
<path opacity="0.7" d="M319.9 84.1875H318.695V91.5678H319.9V84.1875Z" fill="white"/>
<path opacity="0.7" d="M317.583 84.1875H316.379V91.5678H317.583V84.1875Z" fill="white"/>
<path opacity="0.7" d="M315.267 84.1875H314.062V91.5678H315.267V84.1875Z" fill="white"/>
<path opacity="0.7" d="M324.532 96.6699H323.328V104.058H324.532V96.6699Z" fill="white"/>
<path opacity="0.7" d="M322.216 96.6699H321.012V104.058H322.216V96.6699Z" fill="white"/>
<path opacity="0.7" d="M319.9 96.6699H318.695V104.058H319.9V96.6699Z" fill="white"/>
<path opacity="0.7" d="M317.583 96.6699H316.379V104.058H317.583V96.6699Z" fill="white"/>
<path opacity="0.7" d="M315.267 96.6699H314.062V104.058H315.267V96.6699Z" fill="white"/>
<path opacity="0.7" d="M324.532 109.152H323.328V116.54H324.532V109.152Z" fill="white"/>
<path opacity="0.7" d="M322.216 109.152H321.012V116.54H322.216V109.152Z" fill="white"/>
<path opacity="0.7" d="M319.9 109.152H318.695V116.54H319.9V109.152Z" fill="white"/>
<path opacity="0.7" d="M317.583 109.152H316.379V116.54H317.583V109.152Z" fill="white"/>
<path opacity="0.7" d="M315.267 109.152H314.062V116.54H315.267V109.152Z" fill="white"/>
<path opacity="0.7" d="M324.532 121.637H323.328V129.017H324.532V121.637Z" fill="white"/>
<path opacity="0.7" d="M322.216 121.637H321.012V129.017H322.216V121.637Z" fill="white"/>
<path opacity="0.7" d="M319.9 121.637H318.695V129.017H319.9V121.637Z" fill="white"/>
<path opacity="0.7" d="M317.583 121.637H316.379V129.017H317.583V121.637Z" fill="white"/>
<path opacity="0.7" d="M315.267 121.637H314.062V129.017H315.267V121.637Z" fill="white"/>
<path opacity="0.2" d="M294.473 125.327C294.473 125.084 294.545 124.847 294.68 124.645C294.814 124.443 295.006 124.286 295.23 124.193C295.455 124.1 295.701 124.076 295.94 124.123C296.178 124.171 296.396 124.287 296.568 124.459C296.74 124.631 296.857 124.85 296.904 125.088C296.951 125.326 296.927 125.573 296.834 125.797C296.741 126.021 296.584 126.213 296.382 126.348C296.18 126.483 295.943 126.555 295.7 126.555C295.375 126.555 295.062 126.425 294.832 126.195C294.602 125.965 294.473 125.653 294.473 125.327Z" fill="white"/>
<path opacity="0.2" d="M286.75 125.327C286.75 125.084 286.822 124.847 286.957 124.645C287.092 124.443 287.283 124.286 287.508 124.193C287.732 124.1 287.979 124.076 288.217 124.123C288.455 124.171 288.674 124.287 288.845 124.459C289.017 124.631 289.134 124.85 289.181 125.088C289.229 125.326 289.204 125.573 289.112 125.797C289.019 126.021 288.861 126.213 288.659 126.348C288.458 126.483 288.22 126.555 287.977 126.555C287.652 126.555 287.34 126.425 287.11 126.195C286.879 125.965 286.75 125.653 286.75 125.327Z" fill="white"/>
<path opacity="0.4" d="M279.031 125.327C279.031 125.084 279.103 124.847 279.238 124.645C279.373 124.443 279.565 124.286 279.789 124.193C280.013 124.1 280.26 124.076 280.498 124.123C280.736 124.171 280.955 124.287 281.127 124.459C281.298 124.631 281.415 124.85 281.463 125.088C281.51 125.326 281.486 125.573 281.393 125.797C281.3 126.021 281.143 126.213 280.941 126.348C280.739 126.483 280.501 126.555 280.259 126.555C279.933 126.555 279.621 126.425 279.391 126.195C279.161 125.965 279.031 125.653 279.031 125.327Z" fill="white"/>
<path opacity="0.4" d="M294.473 112.843C294.473 112.6 294.545 112.363 294.68 112.161C294.814 111.959 295.006 111.802 295.23 111.709C295.455 111.616 295.701 111.591 295.94 111.639C296.178 111.686 296.396 111.803 296.568 111.975C296.74 112.146 296.857 112.365 296.904 112.603C296.951 112.841 296.927 113.088 296.834 113.312C296.741 113.537 296.584 113.728 296.382 113.863C296.18 113.998 295.943 114.07 295.7 114.07C295.375 114.07 295.062 113.941 294.832 113.711C294.602 113.48 294.473 113.168 294.473 112.843Z" fill="white"/>
<path opacity="0.2" d="M286.75 112.843C286.75 112.6 286.822 112.363 286.957 112.161C287.092 111.959 287.283 111.802 287.508 111.709C287.732 111.616 287.979 111.591 288.217 111.639C288.455 111.686 288.674 111.803 288.845 111.975C289.017 112.146 289.134 112.365 289.181 112.603C289.229 112.841 289.204 113.088 289.112 113.312C289.019 113.537 288.861 113.728 288.659 113.863C288.458 113.998 288.22 114.07 287.977 114.07C287.652 114.07 287.34 113.941 287.11 113.711C286.879 113.48 286.75 113.168 286.75 112.843Z" fill="white"/>
<path opacity="0.4" d="M279.031 112.843C279.031 112.6 279.103 112.363 279.238 112.161C279.373 111.959 279.565 111.802 279.789 111.709C280.013 111.616 280.26 111.591 280.498 111.639C280.736 111.686 280.955 111.803 281.127 111.975C281.298 112.146 281.415 112.365 281.463 112.603C281.51 112.841 281.486 113.088 281.393 113.312C281.3 113.537 281.143 113.728 280.941 113.863C280.739 113.998 280.501 114.07 280.259 114.07C279.933 114.07 279.621 113.941 279.391 113.711C279.161 113.48 279.031 113.168 279.031 112.843Z" fill="white"/>
<path opacity="0.2" d="M294.473 100.36C294.473 100.118 294.545 99.8802 294.68 99.6783C294.814 99.4765 295.006 99.3192 295.23 99.2263C295.455 99.1333 295.701 99.109 295.94 99.1564C296.178 99.2038 296.396 99.3207 296.568 99.4923C296.74 99.664 296.857 99.8827 296.904 100.121C296.951 100.359 296.927 100.606 296.834 100.83C296.741 101.054 296.584 101.246 296.382 101.381C296.18 101.516 295.943 101.588 295.7 101.588C295.375 101.588 295.062 101.458 294.832 101.228C294.602 100.998 294.473 100.686 294.473 100.36Z" fill="white"/>
<path opacity="0.4" d="M286.75 100.36C286.75 100.118 286.822 99.8802 286.957 99.6783C287.092 99.4765 287.283 99.3192 287.508 99.2263C287.732 99.1333 287.979 99.109 288.217 99.1564C288.455 99.2038 288.674 99.3207 288.845 99.4923C289.017 99.664 289.134 99.8827 289.181 100.121C289.229 100.359 289.204 100.606 289.112 100.83C289.019 101.054 288.861 101.246 288.659 101.381C288.458 101.516 288.22 101.588 287.977 101.588C287.652 101.588 287.34 101.458 287.11 101.228C286.879 100.998 286.75 100.686 286.75 100.36Z" fill="white"/>
<path opacity="0.2" d="M279.031 100.36C279.031 100.118 279.103 99.8802 279.238 99.6783C279.373 99.4765 279.565 99.3192 279.789 99.2263C280.013 99.1333 280.26 99.109 280.498 99.1564C280.736 99.2038 280.955 99.3207 281.127 99.4923C281.298 99.664 281.415 99.8827 281.463 100.121C281.51 100.359 281.486 100.606 281.393 100.83C281.3 101.054 281.143 101.246 280.941 101.381C280.739 101.516 280.501 101.588 280.259 101.588C279.933 101.588 279.621 101.458 279.391 101.228C279.161 100.998 279.031 100.686 279.031 100.36Z" fill="white"/>
<path opacity="0.4" d="M294.473 87.8777C294.473 87.6339 294.545 87.3957 294.681 87.1934C294.817 86.991 295.01 86.8338 295.236 86.7416C295.462 86.6494 295.71 86.6265 295.948 86.6757C296.187 86.725 296.406 86.8442 296.576 87.0182C296.747 87.1922 296.862 87.4131 296.907 87.6527C296.951 87.8923 296.924 88.1398 296.827 88.3637C296.731 88.5875 296.57 88.7776 296.365 88.9096C296.16 89.0417 295.921 89.1097 295.677 89.1051C295.355 89.0991 295.049 88.9671 294.824 88.7375C294.599 88.508 294.473 88.1992 294.473 87.8777Z" fill="white"/>
<path opacity="0.2" d="M286.75 87.8777C286.75 87.6339 286.823 87.3957 286.959 87.1934C287.095 86.991 287.288 86.8338 287.513 86.7416C287.739 86.6494 287.987 86.6265 288.226 86.6757C288.464 86.725 288.683 86.8442 288.854 87.0182C289.024 87.1922 289.139 87.4131 289.184 87.6527C289.229 87.8923 289.201 88.1398 289.105 88.3637C289.008 88.5875 288.847 88.7776 288.642 88.9096C288.438 89.0417 288.198 89.1097 287.954 89.1051C287.633 89.0991 287.327 88.9671 287.101 88.7375C286.876 88.508 286.75 88.1992 286.75 87.8777Z" fill="white"/>
<path opacity="0.2" d="M279.031 87.8777C279.031 87.6339 279.104 87.3957 279.24 87.1934C279.376 86.991 279.569 86.8338 279.795 86.7416C280.02 86.6494 280.268 86.6265 280.507 86.6757C280.746 86.725 280.964 86.8442 281.135 87.0182C281.306 87.1922 281.421 87.4131 281.465 87.6527C281.51 87.8923 281.482 88.1398 281.386 88.3637C281.29 88.5875 281.129 88.7776 280.924 88.9096C280.719 89.0417 280.479 89.1097 280.236 89.1051C279.914 89.0991 279.608 88.9671 279.383 88.7375C279.157 88.508 279.031 88.1992 279.031 87.8777Z" fill="white"/>
<path opacity="0.2" d="M294.473 75.3935C294.473 75.1507 294.545 74.9134 294.68 74.7115C294.814 74.5097 295.006 74.3524 295.23 74.2594C295.455 74.1665 295.701 74.1422 295.94 74.1896C296.178 74.237 296.396 74.3539 296.568 74.5255C296.74 74.6972 296.857 74.9159 296.904 75.154C296.951 75.3921 296.927 75.6389 296.834 75.8632C296.741 76.0875 296.584 76.2792 296.382 76.4141C296.18 76.549 295.943 76.621 295.7 76.621C295.375 76.621 295.062 76.4917 294.832 76.2615C294.602 76.0313 294.473 75.719 294.473 75.3935Z" fill="white"/>
<path opacity="0.4" d="M286.75 75.3935C286.75 75.1507 286.822 74.9134 286.957 74.7115C287.092 74.5097 287.283 74.3524 287.508 74.2594C287.732 74.1665 287.979 74.1422 288.217 74.1896C288.455 74.237 288.674 74.3539 288.845 74.5255C289.017 74.6972 289.134 74.9159 289.181 75.154C289.229 75.3921 289.204 75.6389 289.112 75.8632C289.019 76.0875 288.861 76.2792 288.659 76.4141C288.458 76.549 288.22 76.621 287.977 76.621C287.652 76.621 287.34 76.4917 287.11 76.2615C286.879 76.0313 286.75 75.719 286.75 75.3935Z" fill="white"/>
<path opacity="0.4" d="M279.031 75.3935C279.031 75.1507 279.103 74.9134 279.238 74.7115C279.373 74.5097 279.565 74.3524 279.789 74.2594C280.013 74.1665 280.26 74.1422 280.498 74.1896C280.736 74.237 280.955 74.3539 281.127 74.5255C281.298 74.6972 281.415 74.9159 281.463 75.154C281.51 75.3921 281.486 75.6389 281.393 75.8632C281.3 76.0875 281.143 76.2792 280.941 76.4141C280.739 76.549 280.501 76.621 280.259 76.621C279.933 76.621 279.621 76.4917 279.391 76.2615C279.161 76.0313 279.031 75.719 279.031 75.3935Z" fill="white"/>
<path opacity="0.4" d="M294.473 62.9188C294.471 62.6757 294.542 62.4376 294.676 62.2348C294.81 62.0319 295.001 61.8734 295.225 61.7793C295.449 61.6852 295.696 61.6598 295.935 61.7062C296.173 61.7527 296.393 61.869 296.565 62.0404C296.738 62.2117 296.855 62.4304 296.903 62.6688C296.951 62.9071 296.928 63.1543 296.835 63.379C296.742 63.6038 296.585 63.7959 296.383 63.9311C296.181 64.0664 295.943 64.1386 295.7 64.1386C295.376 64.1386 295.065 64.0103 294.835 63.7818C294.605 63.5532 294.475 63.243 294.473 62.9188Z" fill="white"/>
<path opacity="0.2" d="M286.75 62.9188C286.748 62.6757 286.819 62.4376 286.953 62.2348C287.087 62.0319 287.278 61.8734 287.502 61.7793C287.727 61.6852 287.974 61.6598 288.212 61.7062C288.451 61.7527 288.67 61.869 288.843 62.0404C289.015 62.2117 289.133 62.4304 289.181 62.6688C289.229 62.9071 289.205 63.1543 289.112 63.379C289.02 63.6038 288.862 63.7959 288.66 63.9311C288.458 64.0664 288.221 64.1386 287.978 64.1386C287.653 64.1386 287.342 64.0103 287.112 63.7818C286.882 63.5532 286.752 63.243 286.75 62.9188Z" fill="white"/>
<path opacity="0.4" d="M279.031 62.9188C279.03 62.6757 279.1 62.4376 279.234 62.2348C279.368 62.0319 279.559 61.8734 279.784 61.7793C280.008 61.6852 280.255 61.6598 280.493 61.7062C280.732 61.7527 280.952 61.869 281.124 62.0404C281.296 62.2117 281.414 62.4304 281.462 62.6688C281.51 62.9071 281.486 63.1543 281.394 63.379C281.301 63.6038 281.144 63.7959 280.942 63.9311C280.739 64.0664 280.502 64.1386 280.259 64.1386C279.935 64.1386 279.623 64.0103 279.394 63.7818C279.164 63.5532 279.033 63.243 279.031 62.9188Z" fill="white"/>
<path d="M174.965 205.514H90.9023V286.141H174.965V205.514Z" fill="#35A29F"/>
<path opacity="0.4" d="M174.965 205.514H90.9023V286.141H174.965V205.514Z" fill="white"/>
<path opacity="0.7" d="M174.958 205.514H117.66V286.141H174.958V205.514Z" fill="white"/>
<path d="M172.093 209.637H120.523V219.619H172.093V209.637Z" fill="#35A29F"/>
<path d="M172.093 222.119H120.523V232.101H172.093V222.119Z" fill="#35A29F"/>
<path d="M172.093 234.596H120.523V244.578H172.093V234.596Z" fill="#35A29F"/>
<path d="M172.093 247.078H120.523V257.06H172.093V247.078Z" fill="#35A29F"/>
<path d="M172.093 259.562H120.523V269.544H172.093V259.562Z" fill="#35A29F"/>
<path d="M172.093 272.045H120.523V282.027H172.093V272.045Z" fill="#35A29F"/>
<path d="M114.665 209.637H93.9062V219.619H114.665V209.637Z" fill="#35A29F"/>
<path d="M114.665 222.119H93.9062V232.101H114.665V222.119Z" fill="#35A29F"/>
<path d="M114.665 234.596H93.9062V244.578H114.665V234.596Z" fill="#35A29F"/>
<path d="M114.665 247.078H93.9062V257.06H114.665V247.078Z" fill="#35A29F"/>
<path d="M114.665 259.562H93.9062V269.544H114.665V259.562Z" fill="#35A29F"/>
<path d="M114.665 272.045H93.9062V282.027H114.665V272.045Z" fill="#35A29F"/>
<path opacity="0.4" d="M105.563 211.629H95.8203V217.62H105.563V211.629Z" fill="#263238"/>
<path opacity="0.4" d="M105.563 224.111H95.8203V230.102H105.563V224.111Z" fill="#263238"/>
<path opacity="0.4" d="M105.563 236.596H95.8203V242.586H105.563V236.596Z" fill="#263238"/>
<path opacity="0.4" d="M105.563 249.078H95.8203V255.069H105.563V249.078Z" fill="#263238"/>
<path opacity="0.4" d="M105.563 261.562H95.8203V267.553H105.563V261.562Z" fill="#263238"/>
<path opacity="0.4" d="M105.563 274.045H95.8203V280.036H105.563V274.045Z" fill="#263238"/>
<path opacity="0.7" d="M169.568 210.934H168.363V218.322H169.568V210.934Z" fill="white"/>
<path opacity="0.7" d="M167.255 210.934H166.051V218.322H167.255V210.934Z" fill="white"/>
<path opacity="0.7" d="M164.939 210.934H163.734V218.322H164.939V210.934Z" fill="white"/>
<path opacity="0.7" d="M162.622 210.934H161.418V218.322H162.622V210.934Z" fill="white"/>
<path opacity="0.7" d="M160.306 210.934H159.102V218.322H160.306V210.934Z" fill="white"/>
<path opacity="0.7" d="M169.568 223.418H168.363V230.798H169.568V223.418Z" fill="white"/>
<path opacity="0.7" d="M167.255 223.418H166.051V230.798H167.255V223.418Z" fill="white"/>
<path opacity="0.7" d="M164.939 223.418H163.734V230.798H164.939V223.418Z" fill="white"/>
<path opacity="0.7" d="M162.622 223.418H161.418V230.798H162.622V223.418Z" fill="white"/>
<path opacity="0.7" d="M160.306 223.418H159.102V230.798H160.306V223.418Z" fill="white"/>
<path opacity="0.7" d="M169.568 235.9H168.363V243.281H169.568V235.9Z" fill="white"/>
<path opacity="0.7" d="M167.255 235.9H166.051V243.281H167.255V235.9Z" fill="white"/>
<path opacity="0.7" d="M164.939 235.9H163.734V243.281H164.939V235.9Z" fill="white"/>
<path opacity="0.7" d="M162.622 235.9H161.418V243.281H162.622V235.9Z" fill="white"/>
<path opacity="0.7" d="M160.306 235.9H159.102V243.281H160.306V235.9Z" fill="white"/>
<path opacity="0.7" d="M169.568 248.383H168.363V255.771H169.568V248.383Z" fill="white"/>
<path opacity="0.7" d="M167.255 248.383H166.051V255.771H167.255V248.383Z" fill="white"/>
<path opacity="0.7" d="M164.939 248.383H163.734V255.771H164.939V248.383Z" fill="white"/>
<path opacity="0.7" d="M162.622 248.383H161.418V255.771H162.622V248.383Z" fill="white"/>
<path opacity="0.7" d="M160.306 248.383H159.102V255.771H160.306V248.383Z" fill="white"/>
<path opacity="0.7" d="M169.568 260.867H168.363V268.248H169.568V260.867Z" fill="white"/>
<path opacity="0.7" d="M167.255 260.867H166.051V268.248H167.255V260.867Z" fill="white"/>
<path opacity="0.7" d="M164.939 260.867H163.734V268.248H164.939V260.867Z" fill="white"/>
<path opacity="0.7" d="M162.622 260.867H161.418V268.248H162.622V260.867Z" fill="white"/>
<path opacity="0.7" d="M160.306 260.867H159.102V268.248H160.306V260.867Z" fill="white"/>
<path opacity="0.7" d="M169.568 273.342H168.363V280.73H169.568V273.342Z" fill="white"/>
<path opacity="0.7" d="M167.255 273.342H166.051V280.73H167.255V273.342Z" fill="white"/>
<path opacity="0.7" d="M164.939 273.342H163.734V280.73H164.939V273.342Z" fill="white"/>
<path opacity="0.7" d="M162.622 273.342H161.418V280.73H162.622V273.342Z" fill="white"/>
<path opacity="0.7" d="M160.306 273.342H159.102V280.73H160.306V273.342Z" fill="white"/>
<path opacity="0.2" d="M126.521 214.624C126.521 214.867 126.449 215.104 126.315 215.306C126.18 215.508 125.988 215.665 125.764 215.758C125.539 215.851 125.293 215.875 125.054 215.828C124.816 215.78 124.598 215.664 124.426 215.492C124.254 215.32 124.137 215.102 124.09 214.863C124.043 214.625 124.067 214.379 124.16 214.154C124.253 213.93 124.41 213.738 124.612 213.603C124.814 213.468 125.051 213.396 125.294 213.396C125.619 213.396 125.932 213.526 126.162 213.756C126.392 213.986 126.521 214.298 126.521 214.624Z" fill="white"/>
<path opacity="0.2" d="M134.244 214.624C134.244 214.867 134.172 215.104 134.037 215.306C133.902 215.508 133.711 215.665 133.486 215.758C133.262 215.851 133.015 215.875 132.777 215.828C132.539 215.78 132.32 215.664 132.149 215.492C131.977 215.32 131.86 215.102 131.813 214.863C131.765 214.625 131.79 214.379 131.882 214.154C131.975 213.93 132.133 213.738 132.335 213.603C132.536 213.468 132.774 213.396 133.017 213.396C133.342 213.396 133.654 213.526 133.885 213.756C134.115 213.986 134.244 214.298 134.244 214.624Z" fill="white"/>
<path opacity="0.4" d="M141.963 214.624C141.963 214.867 141.891 215.104 141.756 215.306C141.621 215.508 141.429 215.665 141.205 215.758C140.981 215.851 140.734 215.875 140.496 215.828C140.258 215.78 140.039 215.664 139.867 215.492C139.696 215.32 139.579 215.102 139.531 214.863C139.484 214.625 139.508 214.379 139.601 214.154C139.694 213.93 139.851 213.738 140.053 213.603C140.255 213.468 140.493 213.396 140.735 213.396C141.061 213.396 141.373 213.526 141.603 213.756C141.833 213.986 141.963 214.298 141.963 214.624Z" fill="white"/>
<path opacity="0.4" d="M126.521 227.106C126.521 227.349 126.449 227.586 126.315 227.788C126.18 227.99 125.988 228.148 125.764 228.24C125.539 228.333 125.293 228.358 125.054 228.31C124.816 228.263 124.598 228.146 124.426 227.974C124.254 227.803 124.137 227.584 124.09 227.346C124.043 227.108 124.067 226.861 124.16 226.637C124.253 226.412 124.41 226.221 124.612 226.086C124.814 225.951 125.051 225.879 125.294 225.879C125.619 225.879 125.932 226.008 126.162 226.238C126.392 226.469 126.521 226.781 126.521 227.106Z" fill="white"/>
<path opacity="0.2" d="M134.244 227.106C134.244 227.349 134.172 227.586 134.037 227.788C133.902 227.99 133.711 228.148 133.486 228.24C133.262 228.333 133.015 228.358 132.777 228.31C132.539 228.263 132.32 228.146 132.149 227.974C131.977 227.803 131.86 227.584 131.813 227.346C131.765 227.108 131.79 226.861 131.882 226.637C131.975 226.412 132.133 226.221 132.335 226.086C132.536 225.951 132.774 225.879 133.017 225.879C133.342 225.879 133.654 226.008 133.885 226.238C134.115 226.469 134.244 226.781 134.244 227.106Z" fill="white"/>
<path opacity="0.4" d="M141.963 227.106C141.963 227.349 141.891 227.586 141.756 227.788C141.621 227.99 141.429 228.148 141.205 228.24C140.981 228.333 140.734 228.358 140.496 228.31C140.258 228.263 140.039 228.146 139.867 227.974C139.696 227.803 139.579 227.584 139.531 227.346C139.484 227.108 139.508 226.861 139.601 226.637C139.694 226.412 139.851 226.221 140.053 226.086C140.255 225.951 140.493 225.879 140.735 225.879C141.061 225.879 141.373 226.008 141.603 226.238C141.833 226.469 141.963 226.781 141.963 227.106Z" fill="white"/>
<path opacity="0.2" d="M126.521 239.591C126.521 239.834 126.449 240.071 126.315 240.273C126.18 240.475 125.988 240.632 125.764 240.725C125.539 240.818 125.293 240.842 125.054 240.795C124.816 240.747 124.598 240.63 124.426 240.459C124.254 240.287 124.137 240.068 124.09 239.83C124.043 239.592 124.067 239.345 124.16 239.121C124.253 238.897 124.41 238.705 124.612 238.57C124.814 238.435 125.051 238.363 125.294 238.363C125.619 238.363 125.932 238.493 126.162 238.723C126.392 238.953 126.521 239.265 126.521 239.591Z" fill="white"/>
<path opacity="0.4" d="M134.244 239.591C134.244 239.834 134.172 240.071 134.037 240.273C133.902 240.475 133.711 240.632 133.486 240.725C133.262 240.818 133.015 240.842 132.777 240.795C132.539 240.747 132.32 240.63 132.149 240.459C131.977 240.287 131.86 240.068 131.813 239.83C131.765 239.592 131.79 239.345 131.882 239.121C131.975 238.897 132.133 238.705 132.335 238.57C132.536 238.435 132.774 238.363 133.017 238.363C133.342 238.363 133.654 238.493 133.885 238.723C134.115 238.953 134.244 239.265 134.244 239.591Z" fill="white"/>
<path opacity="0.2" d="M141.963 239.591C141.963 239.834 141.891 240.071 141.756 240.273C141.621 240.475 141.429 240.632 141.205 240.725C140.981 240.818 140.734 240.842 140.496 240.795C140.258 240.747 140.039 240.63 139.867 240.459C139.696 240.287 139.579 240.068 139.531 239.83C139.484 239.592 139.508 239.345 139.601 239.121C139.694 238.897 139.851 238.705 140.053 238.57C140.255 238.435 140.493 238.363 140.735 238.363C141.061 238.363 141.373 238.493 141.603 238.723C141.833 238.953 141.963 239.265 141.963 239.591Z" fill="white"/>
<path opacity="0.4" d="M126.521 252.073C126.521 252.316 126.449 252.553 126.315 252.755C126.18 252.957 125.988 253.114 125.764 253.207C125.539 253.3 125.293 253.324 125.054 253.277C124.816 253.23 124.598 253.113 124.426 252.941C124.254 252.769 124.137 252.551 124.09 252.313C124.043 252.075 124.067 251.828 124.16 251.603C124.253 251.379 124.41 251.187 124.612 251.053C124.814 250.918 125.051 250.846 125.294 250.846C125.619 250.846 125.932 250.975 126.162 251.205C126.392 251.435 126.521 251.748 126.521 252.073Z" fill="white"/>
<path opacity="0.2" d="M134.244 252.073C134.244 252.316 134.172 252.553 134.037 252.755C133.902 252.957 133.711 253.114 133.486 253.207C133.262 253.3 133.015 253.324 132.777 253.277C132.539 253.23 132.32 253.113 132.149 252.941C131.977 252.769 131.86 252.551 131.813 252.313C131.765 252.075 131.79 251.828 131.882 251.603C131.975 251.379 132.133 251.187 132.335 251.053C132.536 250.918 132.774 250.846 133.017 250.846C133.342 250.846 133.654 250.975 133.885 251.205C134.115 251.435 134.244 251.748 134.244 252.073Z" fill="white"/>
<path opacity="0.2" d="M141.963 252.073C141.963 252.316 141.891 252.553 141.756 252.755C141.621 252.957 141.429 253.114 141.205 253.207C140.981 253.3 140.734 253.324 140.496 253.277C140.258 253.23 140.039 253.113 139.867 252.941C139.696 252.769 139.579 252.551 139.531 252.313C139.484 252.075 139.508 251.828 139.601 251.603C139.694 251.379 139.851 251.187 140.053 251.053C140.255 250.918 140.493 250.846 140.735 250.846C141.061 250.846 141.373 250.975 141.603 251.205C141.833 251.435 141.963 251.748 141.963 252.073Z" fill="white"/>
<path opacity="0.2" d="M126.521 264.558C126.521 264.8 126.449 265.038 126.315 265.24C126.18 265.441 125.988 265.599 125.764 265.692C125.539 265.785 125.293 265.809 125.054 265.761C124.816 265.714 124.598 265.597 124.426 265.426C124.254 265.254 124.137 265.035 124.09 264.797C124.043 264.559 124.067 264.312 124.16 264.088C124.253 263.864 124.41 263.672 124.612 263.537C124.814 263.402 125.051 263.33 125.294 263.33C125.619 263.33 125.932 263.459 126.162 263.69C126.392 263.92 126.521 264.232 126.521 264.558Z" fill="white"/>
<path opacity="0.4" d="M134.244 264.558C134.244 264.8 134.172 265.038 134.037 265.24C133.902 265.441 133.711 265.599 133.486 265.692C133.262 265.785 133.015 265.809 132.777 265.761C132.539 265.714 132.32 265.597 132.149 265.426C131.977 265.254 131.86 265.035 131.813 264.797C131.765 264.559 131.79 264.312 131.882 264.088C131.975 263.864 132.133 263.672 132.335 263.537C132.536 263.402 132.774 263.33 133.017 263.33C133.342 263.33 133.654 263.459 133.885 263.69C134.115 263.92 134.244 264.232 134.244 264.558Z" fill="white"/>
<path opacity="0.4" d="M141.963 264.558C141.963 264.8 141.891 265.038 141.756 265.24C141.621 265.441 141.429 265.599 141.205 265.692C140.981 265.785 140.734 265.809 140.496 265.761C140.258 265.714 140.039 265.597 139.867 265.426C139.696 265.254 139.579 265.035 139.531 264.797C139.484 264.559 139.508 264.312 139.601 264.088C139.694 263.864 139.851 263.672 140.053 263.537C140.255 263.402 140.493 263.33 140.735 263.33C141.061 263.33 141.373 263.459 141.603 263.69C141.833 263.92 141.963 264.232 141.963 264.558Z" fill="white"/>
<path opacity="0.4" d="M126.521 277.04C126.521 277.283 126.449 277.52 126.315 277.722C126.18 277.924 125.988 278.081 125.764 278.174C125.539 278.267 125.293 278.291 125.054 278.244C124.816 278.197 124.598 278.08 124.426 277.908C124.254 277.736 124.137 277.518 124.09 277.279C124.043 277.041 124.067 276.795 124.16 276.57C124.253 276.346 124.41 276.154 124.612 276.019C124.814 275.884 125.051 275.812 125.294 275.812C125.619 275.812 125.932 275.942 126.162 276.172C126.392 276.402 126.521 276.714 126.521 277.04Z" fill="white"/>
<path opacity="0.2" d="M134.244 277.04C134.244 277.283 134.172 277.52 134.037 277.722C133.902 277.924 133.711 278.081 133.486 278.174C133.262 278.267 133.015 278.291 132.777 278.244C132.539 278.197 132.32 278.08 132.149 277.908C131.977 277.736 131.86 277.518 131.813 277.279C131.765 277.041 131.79 276.795 131.882 276.57C131.975 276.346 132.133 276.154 132.335 276.019C132.536 275.884 132.774 275.812 133.017 275.812C133.342 275.812 133.654 275.942 133.885 276.172C134.115 276.402 134.244 276.714 134.244 277.04Z" fill="white"/>
<path opacity="0.4" d="M141.963 277.04C141.963 277.283 141.891 277.52 141.756 277.722C141.621 277.924 141.429 278.081 141.205 278.174C140.981 278.267 140.734 278.291 140.496 278.244C140.258 278.197 140.039 278.08 139.867 277.908C139.696 277.736 139.579 277.518 139.531 277.279C139.484 277.041 139.508 276.795 139.601 276.57C139.694 276.346 139.851 276.154 140.053 276.019C140.255 275.884 140.493 275.812 140.735 275.812C141.061 275.812 141.373 275.942 141.603 276.172C141.833 276.402 141.963 276.714 141.963 277.04Z" fill="white"/>
<path d="M298.384 134.436H296.84V205.166H298.384V134.436Z" fill="#35A29F"/>
<path opacity="0.7" d="M252.699 246.593H244.053V245.049H252.699V246.593ZM234.789 246.593H225.525V245.049H234.789V246.593ZM216.261 246.593H206.997V245.049H216.261V246.593ZM197.733 246.593H188.469V245.049H197.733V246.593Z" fill="#35A29F"/>
<path d="M272.262 202.642L261.122 257.284C260.999 257.882 261.036 258.502 261.229 259.081C261.423 259.66 261.765 260.178 262.222 260.583C262.679 260.987 263.235 261.265 263.833 261.386C264.431 261.508 265.051 261.469 265.63 261.275L318.52 243.596C319.099 243.405 319.617 243.064 320.022 242.608C320.427 242.152 320.705 241.597 320.827 241C320.949 240.402 320.912 239.783 320.718 239.205C320.524 238.626 320.181 238.109 319.724 237.706L277.974 200.735C277.518 200.329 276.962 200.051 276.364 199.928C275.766 199.806 275.146 199.843 274.566 200.036C273.987 200.229 273.469 200.572 273.064 201.03C272.66 201.487 272.383 202.043 272.262 202.642Z" fill="#35A29F"/>
<path d="M267.676 252.576L276.453 209.537C276.506 209.297 276.62 209.074 276.784 208.891C276.949 208.708 277.158 208.571 277.392 208.493C277.625 208.415 277.875 208.399 278.117 208.447C278.358 208.495 278.583 208.604 278.769 208.765L311.649 237.877C311.835 238.042 311.975 238.253 312.054 238.489C312.132 238.725 312.147 238.977 312.097 239.221C312.047 239.465 311.934 239.691 311.768 239.876C311.603 240.062 311.391 240.201 311.155 240.278L269.505 254.174C269.272 254.251 269.024 254.265 268.784 254.216C268.544 254.167 268.32 254.057 268.136 253.896C267.951 253.735 267.812 253.528 267.731 253.297C267.65 253.066 267.631 252.817 267.676 252.576Z" fill="white"/>
<path d="M278.296 222.399L279.508 226.035L279.578 226.205L283.7 234.866C283.866 235.195 284.144 235.453 284.484 235.595C284.824 235.736 285.203 235.752 285.553 235.638L287.166 235.098C287.513 234.975 287.805 234.733 287.989 234.415C288.173 234.096 288.237 233.723 288.17 233.361L286.286 223.95L286.24 223.773L285.02 220.137C284.887 219.761 284.613 219.451 284.256 219.272C283.899 219.094 283.487 219.061 283.106 219.179L279.246 220.461C278.866 220.596 278.554 220.874 278.376 221.236C278.199 221.598 278.17 222.016 278.296 222.399Z" fill="#263238"/>
<path d="M290.549 239.235C290.719 239.748 290.734 240.3 290.591 240.821C290.448 241.342 290.154 241.809 289.746 242.163C289.337 242.517 288.833 242.742 288.297 242.81C287.761 242.877 287.217 242.784 286.733 242.543C286.25 242.301 285.849 241.921 285.581 241.452C285.314 240.982 285.191 240.444 285.229 239.905C285.268 239.366 285.465 238.85 285.796 238.423C286.127 237.996 286.577 237.677 287.09 237.506C287.431 237.391 287.791 237.345 288.149 237.37C288.508 237.395 288.858 237.49 289.179 237.651C289.501 237.812 289.787 238.034 290.022 238.306C290.257 238.578 290.436 238.894 290.549 239.235Z" fill="#263238"/>
<path d="M128.795 97.9359C124.935 99.0553 107.287 115.785 116.258 124.446C125.228 133.108 145.486 134.266 150.511 129.117C155.537 123.968 156.363 111.261 150.511 100.429C146.891 93.7362 128.795 90.4784 128.795 97.9359Z" fill="#263238"/>
<path opacity="0.5" d="M128.795 97.9359C124.935 99.0553 107.287 115.785 116.258 124.446C125.228 133.108 145.486 134.266 150.511 129.117C155.537 123.968 156.363 111.261 150.511 100.429C146.891 93.7362 128.795 90.4784 128.795 97.9359Z" fill="white"/>
<path d="M154.641 145.275V146.386C154.641 146.811 154.641 147.243 154.641 147.676C154.641 148.54 154.749 149.42 154.857 150.293C155.062 152.033 155.39 153.756 155.838 155.45C156.285 157.12 156.871 158.749 157.59 160.321C157.953 161.093 158.362 161.865 158.787 162.598C158.987 162.969 159.227 163.332 159.451 163.687C159.559 163.872 159.69 164.042 159.813 164.22L160.138 164.698C160.138 164.745 160.053 164.652 159.837 164.582C159.676 164.514 159.498 164.498 159.327 164.536C159.203 164.629 159.736 164.536 160.307 164.243C161.752 163.411 163.081 162.394 164.26 161.217C167 158.525 169.578 155.674 171.98 152.678L172.026 152.624C172.392 152.223 172.887 151.964 173.425 151.89C173.963 151.817 174.509 151.935 174.969 152.224C175.429 152.513 175.772 152.954 175.94 153.47C176.108 153.986 176.089 154.545 175.886 155.048C175.019 156.957 174.044 158.815 172.968 160.614C171.883 162.445 170.684 164.206 169.378 165.887C168.69 166.772 167.953 167.617 167.171 168.419C166.317 169.315 165.376 170.122 164.36 170.828C162.998 171.814 161.401 172.426 159.728 172.604C158.551 172.712 157.365 172.515 156.285 172.032C155.275 171.573 154.376 170.898 153.653 170.056L153.058 169.346C152.873 169.122 152.68 168.906 152.51 168.674C152.163 168.219 151.808 167.763 151.483 167.284C150.817 166.345 150.208 165.365 149.662 164.351C149.098 163.347 148.612 162.305 148.118 161.263C147.623 160.221 147.284 159.132 146.936 158.051C146.255 155.891 145.769 153.675 145.485 151.428C145.354 150.308 145.261 149.189 145.215 148.046C145.215 147.483 145.215 146.911 145.215 146.325V145.445V144.981L145.261 144.433C145.322 143.205 145.868 142.051 146.779 141.225C147.69 140.399 148.892 139.969 150.121 140.029C151.349 140.089 152.504 140.635 153.33 141.547C154.155 142.458 154.586 143.66 154.525 144.889L154.641 145.275Z" fill="#7F3E3B"/>
<path d="M183.963 150.092L182.35 149.444C181.276 149.016 180.078 149.03 179.015 149.482L172.97 152.03L171.426 154.825C173.657 158.384 177.555 156.554 177.555 156.554L181.354 156.832C181.71 156.859 182.066 156.785 182.381 156.619C182.697 156.452 182.959 156.199 183.137 155.89L184.913 152.802C185.049 152.566 185.133 152.303 185.159 152.032C185.184 151.76 185.151 151.486 185.061 151.229C184.971 150.972 184.826 150.737 184.636 150.541C184.447 150.344 184.217 150.191 183.963 150.092Z" fill="#7F3E3B"/>
<path d="M151.662 137.631C154.472 139.345 157.359 151.589 157.359 151.589L145.215 157.765C145.215 157.765 140.043 144.533 142.459 140.997C144.968 137.299 147.555 135.122 151.662 137.631Z" fill="#263238"/>
<path opacity="0.2" d="M154.007 146.842C154.563 148.967 154.547 151.202 153.96 153.319L145.214 157.758C145.214 157.758 142.195 150.038 141.848 144.812C144.951 141.762 152.084 141.376 154.007 146.842Z" fill="black"/>
<path d="M153.631 143.329C153.222 149.505 151.532 165.679 147.764 175.375C146.691 178.131 150.597 179.598 146.313 182.323L115.865 180.632C113.294 178.509 115.579 175.638 115.402 174.24C113.858 162.599 116.112 158.993 113.086 133.409C117.537 132.761 122.029 132.436 126.526 132.437C131.293 132.381 136.058 132.662 140.785 133.278C142.839 133.595 144.977 134.004 146.915 134.421C148.917 134.853 150.697 135.991 151.93 137.626C153.162 139.262 153.766 141.286 153.631 143.329Z" fill="#263238"/>
<path opacity="0.2" d="M114.297 145.676C115.993 146.97 117.323 148.684 118.157 150.647C119.469 153.928 116.042 160.243 114.791 162.359C114.837 158.19 114.884 153.365 114.297 145.676Z" fill="black"/>
<path d="M138.559 139.283C138.559 139.283 133.371 143.537 132.915 148.053C128.222 144.456 122.818 136.581 126.516 132.436C130.399 131.448 138.559 139.283 138.559 139.283Z" fill="#35A29F"/>
<path d="M139.225 140.605C139.225 140.605 143.216 144.025 143.278 148.032C145.902 144.558 145.902 135.873 140.776 133.256C136.885 132.291 139.225 140.605 139.225 140.605Z" fill="#35A29F"/>
<path d="M166.406 246.738L173.015 250.22L182.556 234.224L175.948 230.742L166.406 246.738Z" fill="#7F3E3B"/>
<path d="M173.965 248.483L170.105 240.693C170.039 240.553 169.923 240.443 169.781 240.383C169.638 240.323 169.479 240.318 169.333 240.369L162.724 242.546C162.559 242.607 162.409 242.701 162.284 242.824C162.158 242.947 162.06 243.095 161.996 243.258C161.932 243.421 161.903 243.597 161.912 243.772C161.92 243.947 161.965 244.119 162.045 244.275C163.442 246.97 164.253 248.197 165.951 251.625C167.001 253.732 168.414 258.333 169.857 261.244C171.301 264.154 174.266 262.88 173.918 261.537C172.374 255.523 173.47 252.451 174.103 249.857C174.218 249.397 174.169 248.911 173.965 248.483Z" fill="#263238"/>
<g opacity="0.2">
<path d="M175.942 230.75L182.558 234.232L176.86 243.774L170.754 239.443L175.942 230.75Z" fill="black"/>
</g>
<path d="M141.688 182.261C141.688 182.261 188.263 175.714 192.471 189.479C200.376 215.326 180.651 240.948 180.651 240.948L171.588 235.977C171.588 235.977 181.138 214.623 177.725 201.87C168.894 199.407 126.001 219.626 125.839 187.727C125.78 187.074 125.957 186.422 126.338 185.889C126.72 185.357 127.279 184.979 127.916 184.824L141.688 182.261Z" fill="#35A29F"/>
<g opacity="0.3">
<path d="M141.688 182.261C141.688 182.261 188.263 175.714 192.471 189.479C200.376 215.326 180.651 240.948 180.651 240.948L171.588 235.977C171.588 235.977 181.138 214.623 177.725 201.87C168.894 199.407 126.001 219.626 125.839 187.727C125.78 187.074 125.957 186.422 126.338 185.889C126.72 185.357 127.279 184.979 127.916 184.824L141.688 182.261Z" fill="white"/>
</g>
<path d="M169.812 236.03L180.597 243.48L183.654 239.914L171.797 231.553L169.812 236.03Z" fill="#35A29F"/>
<path d="M174.869 252.567L174.954 252.606C175.122 252.665 175.303 252.681 175.48 252.653C175.657 252.625 175.823 252.553 175.965 252.443C176.059 252.385 176.136 252.303 176.188 252.206C176.239 252.108 176.264 251.998 176.258 251.888C176.258 250.899 173.819 249.463 173.549 249.301C173.517 249.282 173.481 249.272 173.444 249.274C173.408 249.275 173.372 249.287 173.342 249.309C173.313 249.33 173.29 249.36 173.277 249.394C173.264 249.429 173.262 249.466 173.271 249.502C173.502 250.452 174.004 252.135 174.869 252.567ZM173.742 249.849C174.684 250.452 175.872 251.393 175.896 251.895C175.896 251.944 175.884 251.992 175.859 252.034C175.835 252.076 175.799 252.111 175.757 252.135C175.666 252.213 175.556 252.266 175.438 252.288C175.32 252.31 175.198 252.299 175.085 252.258C174.583 252.073 174.097 251.177 173.742 249.849Z" fill="#35A29F"/>
<path d="M173.603 249.758C174.46 250.183 176.251 250.53 176.884 250.067C176.994 249.975 177.07 249.85 177.102 249.711C177.134 249.571 177.12 249.425 177.061 249.295C177.017 249.162 176.943 249.041 176.846 248.941C176.748 248.841 176.629 248.764 176.498 248.716C175.456 248.291 173.456 249.272 173.371 249.318C173.342 249.33 173.317 249.35 173.299 249.376C173.281 249.402 173.272 249.433 173.271 249.465C173.267 249.497 173.272 249.53 173.285 249.56C173.299 249.59 173.321 249.616 173.348 249.634C173.43 249.682 173.515 249.723 173.603 249.758ZM176.413 249.063C176.556 249.132 176.667 249.254 176.722 249.403C176.799 249.627 176.722 249.719 176.66 249.773C176.228 250.105 174.715 249.881 173.858 249.48C174.545 249.187 175.741 248.785 176.359 249.04L176.413 249.063Z" fill="#35A29F"/>
<path d="M115.517 178.734L114.552 181.498C114.428 181.714 114.675 181.945 115.038 181.969L147.354 183.875C147.64 183.875 147.879 183.767 147.91 183.59L148.358 180.795C148.358 180.602 148.149 180.425 147.84 180.401L116.042 178.533C115.944 178.519 115.845 178.53 115.753 178.566C115.661 178.601 115.58 178.659 115.517 178.734Z" fill="#35A29F"/>
<path d="M119.661 182.516L118.812 182.469C118.642 182.469 118.511 182.361 118.534 182.253L119.144 178.625C119.144 178.524 119.321 178.44 119.491 178.455L120.34 178.501C120.51 178.501 120.634 178.609 120.618 178.717L120.001 182.346C120.008 182.516 119.854 182.562 119.661 182.516Z" fill="#263238"/>
<path d="M144.946 184.061L144.089 184.015C143.92 184.015 143.796 183.907 143.819 183.798L144.429 180.17C144.459 180.108 144.508 180.058 144.57 180.027C144.631 179.996 144.701 179.987 144.769 180L145.626 180.047C145.796 180.047 145.919 180.155 145.896 180.263L145.286 183.891C145.271 183.968 145.139 184.061 144.946 184.061Z" fill="#263238"/>
<path d="M132.368 183.289L131.511 183.243C131.341 183.243 131.218 183.135 131.241 183.027L131.851 179.398C131.851 179.298 132.021 179.213 132.191 179.228L133.048 179.275C133.217 179.275 133.341 179.383 133.318 179.483L132.708 183.112C132.685 183.227 132.538 183.289 132.368 183.289Z" fill="#263238"/>
<path d="M128.77 118.17C129.403 122.802 129.905 129.541 126.516 132.413C130.706 135.146 134.393 138.58 137.416 142.565C137.547 142.733 137.716 142.868 137.909 142.957C138.102 143.046 138.314 143.088 138.527 143.078C138.74 143.068 138.947 143.007 139.131 142.9C139.315 142.794 139.471 142.644 139.586 142.465C143.507 136.289 140.767 133.255 140.767 133.255C137.779 132.591 138.142 129.935 139.223 126.423L128.77 118.17Z" fill="#7F3E3B"/>
<path d="M141.433 134.544C141.896 135.972 142.05 138.597 139.595 142.465C139.481 142.644 139.325 142.794 139.141 142.9C138.957 143.007 138.75 143.068 138.537 143.078C138.324 143.088 138.112 143.046 137.919 142.957C137.726 142.868 137.557 142.733 137.426 142.565C134.98 139.408 132.142 136.575 128.98 134.135C132.169 135.038 136.646 139.431 138.561 141.554C139.912 140.511 141.479 136.559 141.433 134.544Z" fill="white"/>
<path opacity="0.2" d="M131.657 121.744L137.462 125.01L139.253 126.422C138.682 127.876 138.419 129.432 138.481 130.993C134.691 129.912 130.345 124.863 131.657 121.744Z" fill="black"/>
<path d="M128.924 107.323C127.704 114.912 127.025 118.131 129.943 122.763C134.335 129.819 143.924 129.657 147.382 122.585C150.47 116.216 152.014 104.876 145.313 100.251C143.848 99.2245 142.144 98.59 140.364 98.4079C138.584 98.2259 136.787 98.5024 135.144 99.2113C133.501 99.9201 132.067 101.038 130.978 102.458C129.89 103.877 129.182 105.552 128.924 107.323Z" fill="#7F3E3B"/>
<path d="M150.349 107.632C149.384 103.517 149.862 96.5689 142.096 96.9549C134.87 97.31 130.47 96.2292 130.516 100.375C122.533 104.281 122.024 108.326 127.636 112.148C131.898 113.167 132.986 108.288 132.5 104.273C135.588 106.072 141.463 103.501 144.219 103.579C147.778 103.71 151.314 111.746 150.349 107.632Z" fill="#263238"/>
<path opacity="0.5" d="M150.349 107.632C149.384 103.517 149.862 96.5689 142.096 96.9549C134.87 97.31 130.47 96.2292 130.516 100.375C122.533 104.281 122.024 108.326 127.636 112.148C131.898 113.167 132.986 108.288 132.5 104.273C135.588 106.072 141.463 103.501 144.219 103.579C147.778 103.71 151.314 111.746 150.349 107.632Z" fill="white"/>
<path opacity="0.2" d="M138.458 111.593C137.348 111.602 136.258 111.294 135.316 110.705C136.4 110.851 137.458 111.15 138.458 111.593Z" fill="black"/>
<path opacity="0.2" d="M138.646 111.059C138.646 111.059 136.847 110.812 136.121 109.785C137.031 110.059 137.885 110.49 138.646 111.059Z" fill="black"/>
<path d="M140.422 111.986C140.291 112.596 140.499 113.159 140.901 113.252C141.302 113.345 141.734 112.92 141.866 112.31C141.997 111.7 141.796 111.137 141.395 111.044C140.993 110.951 140.561 111.376 140.422 111.986Z" fill="#263238"/>
<path d="M147.316 113.531C147.177 114.141 147.393 114.712 147.787 114.797C148.18 114.882 148.62 114.465 148.759 113.855C148.898 113.245 148.682 112.682 148.288 112.589C147.895 112.496 147.455 112.921 147.316 113.531Z" fill="#263238"/>
<path d="M148.102 112.581L149.646 112.488C149.646 112.488 148.65 113.469 148.102 112.581Z" fill="#263238"/>
<path d="M144.945 114.156C145.177 115.667 145.613 117.14 146.242 118.533C145.883 118.686 145.494 118.759 145.103 118.746C144.712 118.732 144.329 118.633 143.98 118.456L144.945 114.156Z" fill="#630F0F"/>
<path d="M140.867 118.85C140.564 118.793 140.257 118.756 139.948 118.742C139.907 118.751 139.869 118.774 139.842 118.807C139.815 118.84 139.801 118.881 139.801 118.924C139.801 118.966 139.815 119.008 139.842 119.041C139.869 119.074 139.907 119.096 139.948 119.105C140.726 119.126 141.488 119.329 142.173 119.698C142.858 120.067 143.447 120.591 143.893 121.228C143.918 121.269 143.957 121.3 144.003 121.312C144.049 121.325 144.098 121.32 144.14 121.298C144.181 121.271 144.21 121.23 144.223 121.183C144.236 121.136 144.231 121.086 144.21 121.043C143.827 120.473 143.334 119.986 142.76 119.609C142.186 119.233 141.542 118.975 140.867 118.85Z" fill="#263238"/>
<path d="M125.643 112.842C125.877 114.312 126.685 115.628 127.889 116.502C129.487 117.652 130.977 116.378 131.078 114.518C131.178 112.842 130.475 110.225 128.6 109.816C128.187 109.734 127.761 109.756 127.36 109.88C126.959 110.005 126.594 110.227 126.301 110.528C126.007 110.828 125.793 111.197 125.678 111.602C125.563 112.006 125.551 112.432 125.643 112.842Z" fill="#7F3E3B"/>
<path d="M139.965 106.815C140.028 106.86 140.103 106.884 140.181 106.884C140.259 106.884 140.334 106.86 140.397 106.815C141.795 105.85 143.856 106.583 143.871 106.591C143.962 106.624 144.063 106.621 144.151 106.58C144.24 106.54 144.308 106.466 144.342 106.375C144.376 106.283 144.372 106.183 144.332 106.094C144.291 106.006 144.217 105.937 144.126 105.904C144.026 105.904 141.686 105.031 139.98 106.205C139.901 106.261 139.848 106.345 139.83 106.441C139.813 106.536 139.834 106.634 139.888 106.714C139.905 106.753 139.932 106.788 139.965 106.815Z" fill="#263238"/>
<path d="M148.472 110.103C148.409 110.114 148.349 110.141 148.3 110.181C148.25 110.222 148.211 110.274 148.187 110.334C148.154 110.424 148.157 110.524 148.196 110.612C148.235 110.7 148.306 110.769 148.395 110.805C148.932 111.034 149.516 111.13 150.098 111.086C150.679 111.042 151.242 110.858 151.738 110.55C151.777 110.522 151.811 110.487 151.837 110.446C151.863 110.405 151.88 110.36 151.889 110.312C151.897 110.264 151.896 110.216 151.885 110.168C151.874 110.121 151.855 110.077 151.827 110.037C151.799 109.997 151.763 109.964 151.723 109.938C151.682 109.912 151.636 109.894 151.588 109.886C151.541 109.878 151.492 109.879 151.445 109.89C151.398 109.9 151.353 109.92 151.313 109.948C150.917 110.184 150.47 110.322 150.01 110.351C149.549 110.381 149.089 110.301 148.665 110.118C148.603 110.098 148.537 110.093 148.472 110.103Z" fill="#263238"/>
<path d="M176.804 272.007L183.921 269.76L179.274 251.727L172.148 253.973L176.804 272.007Z" fill="#7F3E3B"/>
<path d="M183.358 267.86L175.098 265.119C174.954 265.064 174.794 265.064 174.651 265.122C174.508 265.179 174.392 265.289 174.326 265.428L171.238 271.658C171.166 271.819 171.128 271.993 171.129 272.169C171.129 272.345 171.167 272.518 171.241 272.679C171.314 272.839 171.42 272.981 171.553 273.097C171.685 273.212 171.841 273.298 172.01 273.349C174.905 274.252 176.349 274.545 179.985 275.742C182.216 276.514 186.485 278.714 189.565 279.733C192.645 280.752 193.827 277.757 192.653 277.054C187.296 273.912 185.875 270.979 184.47 268.709C184.211 268.304 183.817 268.003 183.358 267.86Z" fill="#263238"/>
<g opacity="0.2">
<path d="M172.148 253.973L179.274 251.727L182.045 262.488L174.673 263.785L172.148 253.973Z" fill="black"/>
</g>
<path d="M131.078 181.574C131.078 181.574 174.109 184.523 174.889 198.898C176.341 225.879 182.686 257.832 182.686 257.832L172.782 260.774C172.782 260.774 159.874 228.35 157.558 207.375C149.575 202.858 110.466 218.584 114.326 183.064C114.394 182.403 114.715 181.793 115.221 181.362C115.727 180.931 116.379 180.711 117.043 180.748L131.078 181.574Z" fill="#35A29F"/>
<g opacity="0.4">
<path d="M131.078 181.574C131.078 181.574 174.109 184.523 174.889 198.898C176.341 225.879 182.686 257.832 182.686 257.832L172.782 260.774C172.782 260.774 159.874 228.35 157.558 207.375C149.575 202.858 110.466 218.584 114.326 183.064C114.394 182.403 114.715 181.793 115.221 181.362C115.727 180.931 116.379 180.711 117.043 180.748L131.078 181.574Z" fill="white"/>
</g>
<path d="M171.588 262.048L184.473 259.631L184.087 254.945L169.805 257.485L171.588 262.048Z" fill="#35A29F"/>
<path d="M186.895 270.091L186.98 270.053C187.142 269.979 187.282 269.863 187.386 269.719C187.491 269.574 187.555 269.404 187.574 269.227C187.601 269.118 187.597 269.004 187.565 268.896C187.532 268.789 187.471 268.693 187.389 268.617C186.663 267.953 183.953 268.655 183.644 268.733C183.609 268.742 183.578 268.762 183.555 268.789C183.531 268.817 183.517 268.851 183.513 268.887C183.509 268.923 183.514 268.959 183.529 268.992C183.544 269.025 183.568 269.052 183.598 269.072C184.447 269.59 185.984 270.4 186.895 270.091ZM184.177 268.98C185.266 268.733 186.763 268.54 187.142 268.887C187.177 268.921 187.203 268.964 187.217 269.012C187.23 269.059 187.231 269.109 187.219 269.157C187.208 269.277 187.168 269.391 187.1 269.49C187.032 269.589 186.94 269.668 186.833 269.721C186.346 269.945 185.374 269.659 184.177 268.98Z" fill="#35A29F"/>
<path d="M184.009 269.018C184.92 268.702 186.441 267.691 186.533 266.895C186.55 266.751 186.517 266.605 186.44 266.481C186.363 266.358 186.246 266.264 186.109 266.216C185.987 266.162 185.856 266.135 185.723 266.135C185.59 266.135 185.458 266.162 185.337 266.216C184.302 266.656 183.592 268.771 183.561 268.864C183.55 268.894 183.548 268.927 183.555 268.958C183.561 268.99 183.577 269.019 183.6 269.042C183.621 269.065 183.647 269.083 183.677 269.094C183.707 269.104 183.738 269.108 183.77 269.103C183.851 269.079 183.931 269.051 184.009 269.018ZM185.491 266.525C185.564 266.494 185.643 266.479 185.723 266.479C185.802 266.479 185.881 266.494 185.954 266.525C186.163 266.625 186.178 266.741 186.17 266.834C186.109 267.366 184.873 268.285 183.993 268.609C184.264 267.922 184.827 266.787 185.437 266.525H185.491Z" fill="#35A29F"/>
<path d="M141.207 111.036L142.751 110.943C142.751 110.943 141.763 111.924 141.207 111.036Z" fill="#263238"/>
<path d="M117.122 144.75C116.35 147.011 115.578 149.428 114.86 151.798C114.142 154.168 113.455 156.577 112.791 158.97C112.127 161.363 111.556 163.772 111.007 166.173C110.459 168.573 110.012 170.974 109.656 173.368C109.375 175.644 109.3 177.941 109.433 180.231C109.548 182.662 109.71 185.148 109.965 187.642C110.452 192.621 111.061 197.678 111.695 202.696V202.734C111.745 203.291 111.591 203.847 111.263 204.3C110.935 204.753 110.455 205.072 109.91 205.198C109.365 205.324 108.793 205.249 108.3 204.986C107.806 204.723 107.424 204.291 107.225 203.769C105.553 198.833 104.161 193.807 103.056 188.715C102.515 186.16 102.014 183.566 101.674 180.91C101.259 178.113 101.14 175.279 101.319 172.457C101.771 167.155 102.628 161.895 103.882 156.723C104.484 154.15 105.161 151.613 105.912 149.111C106.684 146.587 107.456 144.132 108.406 141.577C108.609 141.003 108.922 140.475 109.329 140.022C109.736 139.569 110.228 139.201 110.777 138.939C111.327 138.677 111.922 138.525 112.53 138.493C113.137 138.461 113.746 138.548 114.319 138.751C114.893 138.954 115.421 139.268 115.874 139.675C116.326 140.081 116.694 140.574 116.957 141.123C117.219 141.672 117.371 142.267 117.403 142.875C117.435 143.483 117.348 144.091 117.145 144.665L117.122 144.75Z" fill="#7F3E3B"/>
<path d="M113.077 133.385C109.873 134.157 105.457 144.772 105.457 144.772L115.362 153.751C115.362 153.751 122.132 145.46 121.051 141.291C119.924 136.968 116.728 132.505 113.077 133.385Z" fill="#263238"/>
<path d="M118.573 208.294L118.534 208.078C118.408 207.347 118.115 206.655 117.677 206.057C117.239 205.458 116.668 204.969 116.01 204.627L110.699 201.871L107.557 202.458C106.97 205.623 110.845 208.734 110.845 208.734L111.694 210.525C111.977 211.128 112.472 211.604 113.085 211.863C113.699 212.121 114.386 212.142 115.014 211.923L116.813 211.289C117.412 211.077 117.916 210.66 118.238 210.112C118.56 209.564 118.679 208.921 118.573 208.294Z" fill="#7F3E3B"/>
<path d="M170.852 154.879C171.493 155.559 172.875 155.304 173.94 154.3C175.006 153.297 175.338 151.938 174.712 151.259C174.087 150.579 172.69 150.842 171.624 151.838C170.559 152.834 170.204 154.2 170.852 154.879Z" fill="#35A29F"/>
<path d="M174.982 157.812H174.866C174.727 157.812 171.469 157.256 172.195 151.96C172.209 151.859 172.242 151.761 172.294 151.672C172.345 151.584 172.414 151.507 172.495 151.445C172.576 151.383 172.669 151.337 172.768 151.311C172.867 151.285 172.97 151.278 173.071 151.292C173.173 151.306 173.27 151.339 173.359 151.391C173.447 151.442 173.525 151.511 173.587 151.592C173.649 151.673 173.694 151.766 173.72 151.865C173.746 151.964 173.753 152.067 173.739 152.168C173.222 155.905 175.075 156.283 175.098 156.283C175.299 156.314 175.48 156.422 175.602 156.586C175.723 156.749 175.775 156.954 175.746 157.156C175.719 157.338 175.626 157.505 175.486 157.625C175.346 157.746 175.167 157.812 174.982 157.812Z" fill="#35A29F"/>
<path d="M171.138 154.138C171.516 154.539 172.465 154.261 173.245 153.52C174.025 152.779 174.365 151.853 174.017 151.451C173.67 151.05 172.689 151.32 171.91 152.061C171.13 152.802 170.759 153.729 171.138 154.138Z" fill="white"/>
<path d="M51.1582 42.459C51.1582 42.874 51.1134 43.1914 51.0239 43.4111C50.9425 43.6227 50.8286 43.7285 50.6821 43.7285H49.2783V46.585C49.2783 46.6663 49.2539 46.7396 49.2051 46.8047C49.1562 46.8617 49.0708 46.9105 48.9487 46.9512C48.8267 46.9919 48.668 47.0203 48.4727 47.0366C48.2773 47.061 48.0251 47.0732 47.7158 47.0732C47.4229 47.0732 47.1746 47.061 46.9712 47.0366C46.7759 47.0203 46.6172 46.9919 46.4951 46.9512C46.3812 46.9105 46.2998 46.8617 46.251 46.8047C46.2103 46.7396 46.1899 46.6663 46.1899 46.585V43.7285H40.1475C40.0335 43.7285 39.9318 43.7163 39.8423 43.6919C39.7528 43.6593 39.6755 43.5942 39.6104 43.4966C39.5534 43.3908 39.5086 43.2443 39.4761 43.0571C39.4517 42.8618 39.4395 42.6055 39.4395 42.2881C39.4395 42.0277 39.4435 41.8039 39.4517 41.6167C39.4679 41.4214 39.4883 41.2464 39.5127 41.0918C39.5452 40.9372 39.5859 40.7907 39.6348 40.6523C39.6917 40.514 39.7609 40.3675 39.8423 40.2129L44.7495 31.5581C44.7902 31.4849 44.8594 31.4238 44.957 31.375C45.0547 31.318 45.189 31.2733 45.3599 31.2407C45.5389 31.2 45.7627 31.1715 46.0312 31.1553C46.2998 31.139 46.6253 31.1309 47.0078 31.1309C47.4229 31.1309 47.7769 31.1431 48.0698 31.1675C48.3628 31.1838 48.5947 31.2163 48.7656 31.2651C48.9447 31.3058 49.0749 31.3587 49.1562 31.4238C49.2376 31.4889 49.2783 31.5662 49.2783 31.6558V41.165H50.6821C50.8123 41.165 50.9222 41.2668 51.0117 41.4702C51.1094 41.6655 51.1582 41.9951 51.1582 42.459ZM46.1899 33.9019H46.1655L42.0029 41.165H46.1899V33.9019ZM63.6582 39.041C63.6582 40.3024 63.5565 41.4417 63.353 42.459C63.1496 43.4762 62.8159 44.3429 62.3521 45.0591C61.8963 45.7752 61.2982 46.3245 60.5576 46.707C59.8252 47.0895 58.9259 47.2808 57.8599 47.2808C56.7775 47.2808 55.8823 47.0977 55.1743 46.7314C54.4663 46.3571 53.9048 45.8241 53.4897 45.1323C53.0747 44.4325 52.7817 43.582 52.6108 42.5811C52.4481 41.5719 52.3667 40.4326 52.3667 39.1631C52.3667 37.9098 52.4684 36.7746 52.6719 35.7573C52.8835 34.7319 53.2171 33.8612 53.6729 33.145C54.1367 32.4289 54.7349 31.8796 55.4673 31.4971C56.2078 31.1146 57.1071 30.9233 58.165 30.9233C59.2474 30.9233 60.1426 31.1105 60.8506 31.4849C61.5667 31.8511 62.1323 32.3841 62.5474 33.084C62.9624 33.7757 63.2513 34.6261 63.4141 35.6353C63.5768 36.6362 63.6582 37.7715 63.6582 39.041ZM60.4233 39.1997C60.4233 38.451 60.403 37.7918 60.3623 37.2222C60.3216 36.6444 60.2565 36.1439 60.167 35.7207C60.0856 35.2975 59.9798 34.9395 59.8496 34.6465C59.7275 34.3535 59.577 34.1216 59.3979 33.9507C59.2189 33.7716 59.0155 33.6455 58.7876 33.5723C58.5597 33.499 58.3075 33.4624 58.0308 33.4624C57.5506 33.4624 57.1519 33.5804 56.8345 33.8164C56.5252 34.0443 56.277 34.3901 56.0898 34.854C55.9108 35.3179 55.7847 35.8957 55.7114 36.5874C55.6382 37.2791 55.6016 38.0848 55.6016 39.0044C55.6016 40.1274 55.6463 41.0592 55.7358 41.7998C55.8254 42.5322 55.9637 43.1182 56.1509 43.5576C56.3462 43.9889 56.5944 44.2941 56.8955 44.4731C57.1966 44.644 57.5588 44.7295 57.9819 44.7295C58.2993 44.7295 58.5801 44.6807 58.8242 44.583C59.0684 44.4772 59.2799 44.3226 59.459 44.1191C59.6462 43.9157 59.8008 43.6593 59.9229 43.3501C60.0449 43.0409 60.1426 42.6828 60.2158 42.2759C60.2972 41.869 60.3501 41.4092 60.3745 40.8965C60.4071 40.3838 60.4233 39.8182 60.4233 39.1997ZM76.5 42.459C76.5 42.874 76.4552 43.1914 76.3657 43.4111C76.2843 43.6227 76.1704 43.7285 76.0239 43.7285H74.6201V46.585C74.6201 46.6663 74.5957 46.7396 74.5469 46.8047C74.498 46.8617 74.4126 46.9105 74.2905 46.9512C74.1685 46.9919 74.0098 47.0203 73.8145 47.0366C73.6191 47.061 73.3669 47.0732 73.0576 47.0732C72.7646 47.0732 72.5164 47.061 72.313 47.0366C72.1177 47.0203 71.959 46.9919 71.8369 46.9512C71.723 46.9105 71.6416 46.8617 71.5928 46.8047C71.5521 46.7396 71.5317 46.6663 71.5317 46.585V43.7285H65.4893C65.3753 43.7285 65.2736 43.7163 65.1841 43.6919C65.0946 43.6593 65.0173 43.5942 64.9521 43.4966C64.8952 43.3908 64.8504 43.2443 64.8179 43.0571C64.7935 42.8618 64.7812 42.6055 64.7812 42.2881C64.7812 42.0277 64.7853 41.8039 64.7935 41.6167C64.8097 41.4214 64.8301 41.2464 64.8545 41.0918C64.887 40.9372 64.9277 40.7907 64.9766 40.6523C65.0335 40.514 65.1027 40.3675 65.1841 40.2129L70.0913 31.5581C70.132 31.4849 70.2012 31.4238 70.2988 31.375C70.3965 31.318 70.5308 31.2733 70.7017 31.2407C70.8807 31.2 71.1045 31.1715 71.373 31.1553C71.6416 31.139 71.9671 31.1309 72.3496 31.1309C72.7646 31.1309 73.1187 31.1431 73.4116 31.1675C73.7046 31.1838 73.9365 31.2163 74.1074 31.2651C74.2865 31.3058 74.4167 31.3587 74.498 31.4238C74.5794 31.4889 74.6201 31.5662 74.6201 31.6558V41.165H76.0239C76.1541 41.165 76.264 41.2668 76.3535 41.4702C76.4512 41.6655 76.5 41.9951 76.5 42.459ZM71.5317 33.9019H71.5073L67.3447 41.165H71.5317V33.9019ZM93.7607 45.7427C93.7607 45.9787 93.7485 46.1781 93.7241 46.3408C93.7078 46.4954 93.6794 46.6216 93.6387 46.7192C93.598 46.8169 93.5451 46.8901 93.48 46.939C93.423 46.9797 93.3579 47 93.2847 47H85.3501C85.0815 47 84.8537 46.9227 84.6665 46.7681C84.4875 46.6053 84.3979 46.3449 84.3979 45.9868V32.2173C84.3979 31.8592 84.4875 31.6029 84.6665 31.4482C84.8537 31.2855 85.0815 31.2041 85.3501 31.2041H93.2358C93.3091 31.2041 93.3742 31.2244 93.4312 31.2651C93.4881 31.3058 93.5369 31.3791 93.5776 31.4849C93.6183 31.5825 93.6468 31.7127 93.6631 31.8755C93.6875 32.0301 93.6997 32.2295 93.6997 32.4736C93.6997 32.7015 93.6875 32.8968 93.6631 33.0596C93.6468 33.2142 93.6183 33.3403 93.5776 33.438C93.5369 33.5356 93.4881 33.6089 93.4312 33.6577C93.3742 33.6984 93.3091 33.7188 93.2358 33.7188H87.5962V37.5762H92.3691C92.4424 37.5762 92.5075 37.6006 92.5645 37.6494C92.6296 37.6901 92.6825 37.7593 92.7231 37.8569C92.7638 37.9465 92.7923 38.0726 92.8086 38.2354C92.833 38.39 92.8452 38.5812 92.8452 38.8091C92.8452 39.0451 92.833 39.2404 92.8086 39.395C92.7923 39.5496 92.7638 39.6758 92.7231 39.7734C92.6825 39.863 92.6296 39.9281 92.5645 39.9688C92.5075 40.0094 92.4424 40.0298 92.3691 40.0298H87.5962V44.4854H93.2847C93.3579 44.4854 93.423 44.5098 93.48 44.5586C93.5451 44.5993 93.598 44.6685 93.6387 44.7661C93.6794 44.8638 93.7078 44.994 93.7241 45.1567C93.7485 45.3114 93.7607 45.5067 93.7607 45.7427ZM108.324 46.585C108.324 46.6745 108.307 46.7518 108.275 46.8169C108.242 46.8739 108.165 46.9227 108.043 46.9634C107.921 47.0041 107.742 47.0326 107.506 47.0488C107.27 47.0651 106.948 47.0732 106.542 47.0732C106.2 47.0732 105.927 47.0651 105.724 47.0488C105.52 47.0326 105.357 47.0041 105.235 46.9634C105.121 46.9146 105.04 46.8576 104.991 46.7925C104.942 46.7192 104.902 46.6338 104.869 46.5361L103.453 43.0083C103.282 42.6095 103.115 42.2555 102.953 41.9463C102.79 41.637 102.607 41.3807 102.403 41.1772C102.208 40.9657 101.98 40.807 101.72 40.7012C101.459 40.5954 101.158 40.5425 100.816 40.5425H99.8154V46.5605C99.8154 46.6419 99.7869 46.7152 99.73 46.7803C99.6812 46.8454 99.5957 46.8983 99.4736 46.939C99.3516 46.9797 99.1888 47.0122 98.9854 47.0366C98.7819 47.061 98.5215 47.0732 98.2041 47.0732C97.8949 47.0732 97.6344 47.061 97.4229 47.0366C97.2194 47.0122 97.0566 46.9797 96.9346 46.939C96.8125 46.8983 96.7271 46.8454 96.6782 46.7803C96.6294 46.7152 96.605 46.6419 96.605 46.5605V32.2173C96.605 31.8592 96.6945 31.6029 96.8735 31.4482C97.0607 31.2855 97.2886 31.2041 97.5571 31.2041H101.646C102.062 31.2041 102.403 31.2122 102.672 31.2285C102.94 31.2448 103.185 31.2651 103.404 31.2896C104.039 31.3791 104.609 31.5337 105.113 31.7534C105.626 31.9731 106.057 32.262 106.407 32.6201C106.765 32.9701 107.038 33.3892 107.225 33.8774C107.412 34.3576 107.506 34.911 107.506 35.5376C107.506 36.0666 107.437 36.5508 107.298 36.9902C107.168 37.4215 106.973 37.8081 106.712 38.1499C106.452 38.4917 106.131 38.7887 105.748 39.041C105.366 39.2933 104.93 39.4967 104.442 39.6514C104.678 39.7653 104.898 39.9036 105.101 40.0664C105.313 40.2292 105.508 40.4285 105.687 40.6646C105.874 40.8924 106.049 41.1569 106.212 41.458C106.375 41.751 106.533 42.0846 106.688 42.459L108.019 45.5718C108.141 45.881 108.222 46.1089 108.263 46.2554C108.303 46.3937 108.324 46.5036 108.324 46.585ZM104.186 35.8672C104.186 35.3464 104.068 34.9069 103.832 34.5488C103.596 34.1908 103.209 33.9385 102.672 33.792C102.509 33.7513 102.322 33.7188 102.11 33.6943C101.907 33.6699 101.622 33.6577 101.256 33.6577H99.8154V38.1377H101.451C101.907 38.1377 102.306 38.0848 102.647 37.979C102.989 37.8651 103.274 37.7104 103.502 37.5151C103.73 37.3117 103.901 37.0716 104.015 36.7949C104.129 36.5182 104.186 36.209 104.186 35.8672ZM122.411 46.585C122.411 46.6745 122.394 46.7518 122.362 46.8169C122.329 46.8739 122.252 46.9227 122.13 46.9634C122.008 47.0041 121.829 47.0326 121.593 47.0488C121.357 47.0651 121.035 47.0732 120.628 47.0732C120.287 47.0732 120.014 47.0651 119.811 47.0488C119.607 47.0326 119.444 47.0041 119.322 46.9634C119.208 46.9146 119.127 46.8576 119.078 46.7925C119.029 46.7192 118.989 46.6338 118.956 46.5361L117.54 43.0083C117.369 42.6095 117.202 42.2555 117.04 41.9463C116.877 41.637 116.694 41.3807 116.49 41.1772C116.295 40.9657 116.067 40.807 115.807 40.7012C115.546 40.5954 115.245 40.5425 114.903 40.5425H113.902V46.5605C113.902 46.6419 113.874 46.7152 113.817 46.7803C113.768 46.8454 113.683 46.8983 113.561 46.939C113.438 46.9797 113.276 47.0122 113.072 47.0366C112.869 47.061 112.608 47.0732 112.291 47.0732C111.982 47.0732 111.721 47.061 111.51 47.0366C111.306 47.0122 111.144 46.9797 111.021 46.939C110.899 46.8983 110.814 46.8454 110.765 46.7803C110.716 46.7152 110.692 46.6419 110.692 46.5605V32.2173C110.692 31.8592 110.781 31.6029 110.96 31.4482C111.148 31.2855 111.375 31.2041 111.644 31.2041H115.733C116.148 31.2041 116.49 31.2122 116.759 31.2285C117.027 31.2448 117.271 31.2651 117.491 31.2896C118.126 31.3791 118.696 31.5337 119.2 31.7534C119.713 31.9731 120.144 32.262 120.494 32.6201C120.852 32.9701 121.125 33.3892 121.312 33.8774C121.499 34.3576 121.593 34.911 121.593 35.5376C121.593 36.0666 121.524 36.5508 121.385 36.9902C121.255 37.4215 121.06 37.8081 120.799 38.1499C120.539 38.4917 120.217 38.7887 119.835 39.041C119.452 39.2933 119.017 39.4967 118.529 39.6514C118.765 39.7653 118.985 39.9036 119.188 40.0664C119.4 40.2292 119.595 40.4285 119.774 40.6646C119.961 40.8924 120.136 41.1569 120.299 41.458C120.462 41.751 120.62 42.0846 120.775 42.459L122.105 45.5718C122.228 45.881 122.309 46.1089 122.35 46.2554C122.39 46.3937 122.411 46.5036 122.411 46.585ZM118.272 35.8672C118.272 35.3464 118.154 34.9069 117.918 34.5488C117.682 34.1908 117.296 33.9385 116.759 33.792C116.596 33.7513 116.409 33.7188 116.197 33.6943C115.994 33.6699 115.709 33.6577 115.343 33.6577H113.902V38.1377H115.538C115.994 38.1377 116.393 38.0848 116.734 37.979C117.076 37.8651 117.361 37.7104 117.589 37.5151C117.817 37.3117 117.988 37.0716 118.102 36.7949C118.215 36.5182 118.272 36.209 118.272 35.8672ZM138.744 38.9189C138.744 40.2292 138.581 41.401 138.255 42.4346C137.93 43.4681 137.446 44.347 136.803 45.0713C136.16 45.7874 135.362 46.3368 134.41 46.7192C133.466 47.0936 132.372 47.2808 131.126 47.2808C129.898 47.2808 128.823 47.1221 127.904 46.8047C126.992 46.4792 126.231 45.9868 125.621 45.3276C125.011 44.6685 124.551 43.8302 124.242 42.813C123.941 41.7957 123.79 40.5913 123.79 39.1997C123.79 37.922 123.953 36.7746 124.278 35.7573C124.604 34.7319 125.088 33.8612 125.731 33.145C126.374 32.4289 127.167 31.8796 128.111 31.4971C129.063 31.1146 130.166 30.9233 131.419 30.9233C132.616 30.9233 133.67 31.082 134.581 31.3994C135.501 31.7168 136.266 32.2051 136.876 32.8643C137.494 33.5234 137.958 34.3576 138.268 35.3667C138.585 36.3677 138.744 37.5518 138.744 38.9189ZM135.375 39.0898C135.375 38.2598 135.309 37.507 135.179 36.8315C135.049 36.1479 134.825 35.5661 134.508 35.0859C134.199 34.5977 133.784 34.2233 133.263 33.9629C132.742 33.6943 132.091 33.5601 131.31 33.5601C130.52 33.5601 129.861 33.7106 129.332 34.0117C128.803 34.3047 128.376 34.6994 128.05 35.1958C127.725 35.6922 127.493 36.2741 127.354 36.9414C127.224 37.6006 127.159 38.3005 127.159 39.041C127.159 39.9036 127.224 40.6808 127.354 41.3726C127.485 42.0562 127.704 42.6421 128.014 43.1304C128.323 43.6187 128.738 43.993 129.259 44.2534C129.78 44.5057 130.435 44.6318 131.224 44.6318C132.014 44.6318 132.673 44.4854 133.202 44.1924C133.731 43.8994 134.158 43.5007 134.483 42.9961C134.809 42.4915 135.037 41.9056 135.167 41.2383C135.305 40.5628 135.375 39.8467 135.375 39.0898ZM153.172 46.585C153.172 46.6745 153.156 46.7518 153.124 46.8169C153.091 46.8739 153.014 46.9227 152.892 46.9634C152.77 47.0041 152.59 47.0326 152.354 47.0488C152.118 47.0651 151.797 47.0732 151.39 47.0732C151.048 47.0732 150.776 47.0651 150.572 47.0488C150.369 47.0326 150.206 47.0041 150.084 46.9634C149.97 46.9146 149.889 46.8576 149.84 46.7925C149.791 46.7192 149.75 46.6338 149.718 46.5361L148.302 43.0083C148.131 42.6095 147.964 42.2555 147.801 41.9463C147.639 41.637 147.455 41.3807 147.252 41.1772C147.057 40.9657 146.829 40.807 146.568 40.7012C146.308 40.5954 146.007 40.5425 145.665 40.5425H144.664V46.5605C144.664 46.6419 144.636 46.7152 144.579 46.7803C144.53 46.8454 144.444 46.8983 144.322 46.939C144.2 46.9797 144.037 47.0122 143.834 47.0366C143.631 47.061 143.37 47.0732 143.053 47.0732C142.743 47.0732 142.483 47.061 142.271 47.0366C142.068 47.0122 141.905 46.9797 141.783 46.939C141.661 46.8983 141.576 46.8454 141.527 46.7803C141.478 46.7152 141.454 46.6419 141.454 46.5605V32.2173C141.454 31.8592 141.543 31.6029 141.722 31.4482C141.909 31.2855 142.137 31.2041 142.406 31.2041H146.495C146.91 31.2041 147.252 31.2122 147.521 31.2285C147.789 31.2448 148.033 31.2651 148.253 31.2896C148.888 31.3791 149.457 31.5337 149.962 31.7534C150.475 31.9731 150.906 32.262 151.256 32.6201C151.614 32.9701 151.887 33.3892 152.074 33.8774C152.261 34.3576 152.354 34.911 152.354 35.5376C152.354 36.0666 152.285 36.5508 152.147 36.9902C152.017 37.4215 151.821 37.8081 151.561 38.1499C151.301 38.4917 150.979 38.7887 150.597 39.041C150.214 39.2933 149.779 39.4967 149.291 39.6514C149.527 39.7653 149.746 39.9036 149.95 40.0664C150.161 40.2292 150.357 40.4285 150.536 40.6646C150.723 40.8924 150.898 41.1569 151.061 41.458C151.223 41.751 151.382 42.0846 151.537 42.459L152.867 45.5718C152.989 45.881 153.071 46.1089 153.111 46.2554C153.152 46.3937 153.172 46.5036 153.172 46.585ZM149.034 35.8672C149.034 35.3464 148.916 34.9069 148.68 34.5488C148.444 34.1908 148.058 33.9385 147.521 33.792C147.358 33.7513 147.171 33.7188 146.959 33.6943C146.756 33.6699 146.471 33.6577 146.104 33.6577H144.664V38.1377H146.3C146.756 38.1377 147.154 38.0848 147.496 37.979C147.838 37.8651 148.123 37.7104 148.351 37.5151C148.578 37.3117 148.749 37.0716 148.863 36.7949C148.977 36.5182 149.034 36.209 149.034 35.8672Z" fill="#414141"/>
<path d="M54.7881 70.2993C54.7881 70.4621 54.7596 70.6004 54.7026 70.7144C54.6538 70.8283 54.5846 70.9219 54.4951 70.9951C54.4137 71.0684 54.3201 71.1213 54.2144 71.1538C54.1086 71.1864 54.0028 71.2026 53.897 71.2026H53.2256C53.014 71.2026 52.8268 71.1823 52.6641 71.1416C52.5094 71.0928 52.3589 71.0114 52.2124 70.8975C52.0741 70.7754 51.9316 70.6126 51.7852 70.4092C51.6468 70.2057 51.4922 69.9453 51.3213 69.6279L46.3408 60.6436C46.0804 60.1797 45.8159 59.6955 45.5474 59.1909C45.2869 58.6782 45.0428 58.1818 44.8149 57.7017H44.7905C44.8068 58.2876 44.819 58.8857 44.8271 59.4961C44.8353 60.1064 44.8394 60.7127 44.8394 61.3149V70.8486C44.8394 70.9056 44.8231 70.9626 44.7905 71.0195C44.758 71.0684 44.701 71.109 44.6196 71.1416C44.5464 71.166 44.4447 71.1864 44.3145 71.2026C44.1924 71.2271 44.0337 71.2393 43.8384 71.2393C43.6431 71.2393 43.4803 71.2271 43.3501 71.2026C43.228 71.1864 43.1304 71.166 43.0571 71.1416C42.9839 71.109 42.931 71.0684 42.8984 71.0195C42.8659 70.9626 42.8496 70.9056 42.8496 70.8486V56.2734C42.8496 55.9479 42.9391 55.716 43.1182 55.5776C43.2972 55.4393 43.4925 55.3701 43.7041 55.3701H44.7051C44.9411 55.3701 45.1364 55.3905 45.291 55.4312C45.4538 55.4718 45.5962 55.541 45.7183 55.6387C45.8485 55.7282 45.9705 55.8584 46.0845 56.0293C46.2065 56.1921 46.3368 56.3996 46.4751 56.6519L50.3081 63.5854C50.5441 64.0086 50.772 64.4237 50.9917 64.8306C51.2114 65.2293 51.423 65.624 51.6265 66.0146C51.8299 66.4053 52.0293 66.7918 52.2246 67.1743C52.4281 67.5487 52.6274 67.9271 52.8228 68.3096H52.835C52.8187 67.6667 52.8065 66.9993 52.7983 66.3076C52.7983 65.6077 52.7983 64.9364 52.7983 64.2935V55.7241C52.7983 55.6672 52.8146 55.6143 52.8472 55.5654C52.8797 55.5166 52.9326 55.4759 53.0059 55.4434C53.0872 55.4027 53.189 55.3742 53.311 55.3579C53.4412 55.3416 53.6081 55.3335 53.8115 55.3335C53.9906 55.3335 54.1452 55.3416 54.2754 55.3579C54.4056 55.3742 54.5073 55.4027 54.5806 55.4434C54.6538 55.4759 54.7067 55.5166 54.7393 55.5654C54.7718 55.6143 54.7881 55.6672 54.7881 55.7241V70.2993ZM72.2197 63.085C72.2197 64.3626 72.0692 65.5142 71.7681 66.5396C71.467 67.5649 71.0153 68.4398 70.4131 69.1641C69.819 69.8802 69.0703 70.4336 68.167 70.8242C67.2637 71.2067 66.2098 71.3979 65.0054 71.3979C63.8172 71.3979 62.7878 71.223 61.917 70.873C61.0544 70.515 60.3382 69.9982 59.7686 69.3228C59.207 68.6473 58.7879 67.8091 58.5112 66.8081C58.2345 65.8071 58.0962 64.6556 58.0962 63.3535C58.0962 62.1084 58.2467 60.9772 58.5479 59.96C58.849 58.9427 59.3006 58.0801 59.9028 57.3721C60.505 56.6559 61.2578 56.1066 62.1611 55.7241C63.0645 55.3335 64.1183 55.1382 65.3228 55.1382C66.4865 55.1382 67.4997 55.3132 68.3623 55.6631C69.2249 56.013 69.9411 56.5257 70.5107 57.2012C71.0885 57.8685 71.5158 58.6986 71.7925 59.6914C72.0773 60.6761 72.2197 61.8073 72.2197 63.085ZM70.0103 63.2314C70.0103 62.3363 69.9289 61.5062 69.7661 60.7412C69.6115 59.9681 69.347 59.3008 68.9727 58.7393C68.6064 58.1696 68.1141 57.7261 67.4956 57.4087C66.8771 57.0913 66.1121 56.9326 65.2007 56.9326C64.2892 56.9326 63.5243 57.1035 62.9058 57.4453C62.2873 57.7871 61.7827 58.2428 61.3921 58.8125C61.0096 59.3822 60.7329 60.0495 60.562 60.8145C60.3993 61.5713 60.3179 62.3688 60.3179 63.207C60.3179 64.1348 60.3952 64.9893 60.5498 65.7705C60.7044 66.5518 60.9648 67.2272 61.3311 67.7969C61.6973 68.3584 62.1855 68.7979 62.7959 69.1152C63.4144 69.4245 64.1875 69.5791 65.1152 69.5791C66.0348 69.5791 66.8079 69.4082 67.4346 69.0664C68.0612 68.7246 68.5658 68.2648 68.9482 67.687C69.3307 67.1011 69.6034 66.4256 69.7661 65.6606C69.9289 64.8957 70.0103 64.0859 70.0103 63.2314ZM84.7563 56.2734C84.7563 56.4281 84.7482 56.5623 84.7319 56.6763C84.7157 56.7902 84.6872 56.8838 84.6465 56.957C84.6139 57.0221 84.5692 57.071 84.5122 57.1035C84.4634 57.1361 84.4064 57.1523 84.3413 57.1523H79.8979V70.8486C79.8979 70.9137 79.8817 70.9707 79.8491 71.0195C79.8166 71.0684 79.7596 71.109 79.6782 71.1416C79.5968 71.166 79.487 71.1864 79.3486 71.2026C79.2184 71.2271 79.0516 71.2393 78.8481 71.2393C78.6528 71.2393 78.486 71.2271 78.3477 71.2026C78.2093 71.1864 78.0994 71.166 78.0181 71.1416C77.9367 71.109 77.8797 71.0684 77.8472 71.0195C77.8146 70.9707 77.7983 70.9137 77.7983 70.8486V57.1523H73.355C73.2899 57.1523 73.2288 57.1361 73.1719 57.1035C73.123 57.071 73.0824 57.0221 73.0498 56.957C73.0173 56.8838 72.9888 56.7902 72.9644 56.6763C72.9481 56.5623 72.9399 56.4281 72.9399 56.2734C72.9399 56.1188 72.9481 55.9845 72.9644 55.8706C72.9888 55.7485 73.0173 55.6509 73.0498 55.5776C73.0824 55.5044 73.123 55.4515 73.1719 55.4189C73.2288 55.3864 73.2899 55.3701 73.355 55.3701H84.3413C84.4064 55.3701 84.4634 55.3864 84.5122 55.4189C84.5692 55.4515 84.6139 55.5044 84.6465 55.5776C84.6872 55.6509 84.7157 55.7485 84.7319 55.8706C84.7482 55.9845 84.7563 56.1188 84.7563 56.2734ZM101.004 56.2734C101.004 56.4281 100.996 56.5623 100.979 56.6763C100.963 56.7902 100.935 56.8838 100.894 56.957C100.853 57.0221 100.805 57.071 100.748 57.1035C100.699 57.1361 100.646 57.1523 100.589 57.1523H94.8027V62.5234H100.271C100.328 62.5234 100.381 62.5397 100.43 62.5723C100.487 62.5967 100.536 62.6414 100.577 62.7065C100.617 62.7716 100.646 62.8612 100.662 62.9751C100.678 63.0809 100.687 63.2192 100.687 63.3901C100.687 63.5448 100.678 63.679 100.662 63.793C100.646 63.8988 100.617 63.9883 100.577 64.0615C100.536 64.1266 100.487 64.1795 100.43 64.2202C100.381 64.2528 100.328 64.269 100.271 64.269H94.8027V70.8486C94.8027 70.9056 94.7865 70.9626 94.7539 71.0195C94.7214 71.0684 94.6644 71.109 94.583 71.1416C94.5016 71.166 94.3958 71.1864 94.2656 71.2026C94.1354 71.2271 93.9645 71.2393 93.7529 71.2393C93.5576 71.2393 93.3908 71.2271 93.2524 71.2026C93.1141 71.1864 93.0042 71.166 92.9229 71.1416C92.8415 71.109 92.7845 71.0684 92.752 71.0195C92.7194 70.9626 92.7031 70.9056 92.7031 70.8486V56.2246C92.7031 55.9072 92.7845 55.6875 92.9473 55.5654C93.1182 55.4352 93.2972 55.3701 93.4844 55.3701H100.589C100.646 55.3701 100.699 55.3864 100.748 55.4189C100.805 55.4515 100.853 55.5044 100.894 55.5776C100.935 55.6509 100.963 55.7485 100.979 55.8706C100.996 55.9845 101.004 56.1188 101.004 56.2734ZM117.215 63.085C117.215 64.3626 117.064 65.5142 116.763 66.5396C116.462 67.5649 116.01 68.4398 115.408 69.1641C114.814 69.8802 114.065 70.4336 113.162 70.8242C112.259 71.2067 111.205 71.3979 110 71.3979C108.812 71.3979 107.783 71.223 106.912 70.873C106.049 70.515 105.333 69.9982 104.764 69.3228C104.202 68.6473 103.783 67.8091 103.506 66.8081C103.23 65.8071 103.091 64.6556 103.091 63.3535C103.091 62.1084 103.242 60.9772 103.543 59.96C103.844 58.9427 104.296 58.0801 104.898 57.3721C105.5 56.6559 106.253 56.1066 107.156 55.7241C108.06 55.3335 109.113 55.1382 110.318 55.1382C111.482 55.1382 112.495 55.3132 113.357 55.6631C114.22 56.013 114.936 56.5257 115.506 57.2012C116.084 57.8685 116.511 58.6986 116.788 59.6914C117.072 60.6761 117.215 61.8073 117.215 63.085ZM115.005 63.2314C115.005 62.3363 114.924 61.5062 114.761 60.7412C114.607 59.9681 114.342 59.3008 113.968 58.7393C113.602 58.1696 113.109 57.7261 112.491 57.4087C111.872 57.0913 111.107 56.9326 110.196 56.9326C109.284 56.9326 108.519 57.1035 107.901 57.4453C107.282 57.7871 106.778 58.2428 106.387 58.8125C106.005 59.3822 105.728 60.0495 105.557 60.8145C105.394 61.5713 105.313 62.3688 105.313 63.207C105.313 64.1348 105.39 64.9893 105.545 65.7705C105.7 66.5518 105.96 67.2272 106.326 67.7969C106.692 68.3584 107.181 68.7979 107.791 69.1152C108.41 69.4245 109.183 69.5791 110.11 69.5791C111.03 69.5791 111.803 69.4082 112.43 69.0664C113.056 68.7246 113.561 68.2648 113.943 67.687C114.326 67.1011 114.598 66.4256 114.761 65.6606C114.924 64.8957 115.005 64.0859 115.005 63.2314ZM132.413 65.3311C132.413 66.2913 132.27 67.1499 131.985 67.9067C131.709 68.6554 131.31 69.2902 130.789 69.811C130.268 70.3319 129.633 70.7266 128.885 70.9951C128.136 71.2637 127.286 71.3979 126.333 71.3979C125.463 71.3979 124.669 71.2718 123.953 71.0195C123.237 70.7673 122.623 70.397 122.11 69.9087C121.597 69.4123 121.202 68.7938 120.926 68.0532C120.649 67.3127 120.511 66.4582 120.511 65.4897V55.6875C120.511 55.6224 120.527 55.5654 120.56 55.5166C120.592 55.4678 120.649 55.4312 120.73 55.4067C120.812 55.3742 120.918 55.3498 121.048 55.3335C121.178 55.3091 121.349 55.2969 121.561 55.2969C121.756 55.2969 121.923 55.3091 122.061 55.3335C122.199 55.3498 122.305 55.3742 122.378 55.4067C122.46 55.4312 122.517 55.4678 122.549 55.5166C122.582 55.5654 122.598 55.6224 122.598 55.6875V65.2334C122.598 65.9658 122.688 66.6047 122.867 67.1499C123.046 67.6951 123.302 68.1509 123.636 68.5171C123.978 68.8752 124.384 69.1478 124.856 69.335C125.337 69.514 125.874 69.6035 126.468 69.6035C127.078 69.6035 127.619 69.514 128.091 69.335C128.571 69.1559 128.974 68.8874 129.3 68.5293C129.633 68.1712 129.886 67.7277 130.057 67.1987C130.236 66.6698 130.325 66.0513 130.325 65.3433V55.6875C130.325 55.6224 130.341 55.5654 130.374 55.5166C130.407 55.4678 130.464 55.4312 130.545 55.4067C130.626 55.3742 130.732 55.3498 130.862 55.3335C131.001 55.3091 131.172 55.2969 131.375 55.2969C131.57 55.2969 131.733 55.3091 131.863 55.3335C132.002 55.3498 132.107 55.3742 132.181 55.4067C132.262 55.4312 132.319 55.4678 132.352 55.5166C132.392 55.5654 132.413 55.6224 132.413 55.6875V65.3311ZM148.514 70.2993C148.514 70.4621 148.485 70.6004 148.428 70.7144C148.379 70.8283 148.31 70.9219 148.221 70.9951C148.139 71.0684 148.046 71.1213 147.94 71.1538C147.834 71.1864 147.728 71.2026 147.623 71.2026H146.951C146.74 71.2026 146.552 71.1823 146.39 71.1416C146.235 71.0928 146.084 71.0114 145.938 70.8975C145.8 70.7754 145.657 70.6126 145.511 70.4092C145.372 70.2057 145.218 69.9453 145.047 69.6279L140.066 60.6436C139.806 60.1797 139.542 59.6955 139.273 59.1909C139.013 58.6782 138.768 58.1818 138.541 57.7017H138.516C138.532 58.2876 138.545 58.8857 138.553 59.4961C138.561 60.1064 138.565 60.7127 138.565 61.3149V70.8486C138.565 70.9056 138.549 70.9626 138.516 71.0195C138.484 71.0684 138.427 71.109 138.345 71.1416C138.272 71.166 138.17 71.1864 138.04 71.2026C137.918 71.2271 137.759 71.2393 137.564 71.2393C137.369 71.2393 137.206 71.2271 137.076 71.2026C136.954 71.1864 136.856 71.166 136.783 71.1416C136.709 71.109 136.657 71.0684 136.624 71.0195C136.591 70.9626 136.575 70.9056 136.575 70.8486V56.2734C136.575 55.9479 136.665 55.716 136.844 55.5776C137.023 55.4393 137.218 55.3701 137.43 55.3701H138.431C138.667 55.3701 138.862 55.3905 139.017 55.4312C139.179 55.4718 139.322 55.541 139.444 55.6387C139.574 55.7282 139.696 55.8584 139.81 56.0293C139.932 56.1921 140.062 56.3996 140.201 56.6519L144.034 63.5854C144.27 64.0086 144.498 64.4237 144.717 64.8306C144.937 65.2293 145.149 65.624 145.352 66.0146C145.556 66.4053 145.755 66.7918 145.95 67.1743C146.154 67.5487 146.353 67.9271 146.548 68.3096H146.561C146.544 67.6667 146.532 66.9993 146.524 66.3076C146.524 65.6077 146.524 64.9364 146.524 64.2935V55.7241C146.524 55.6672 146.54 55.6143 146.573 55.5654C146.605 55.5166 146.658 55.4759 146.731 55.4434C146.813 55.4027 146.915 55.3742 147.037 55.3579C147.167 55.3416 147.334 55.3335 147.537 55.3335C147.716 55.3335 147.871 55.3416 148.001 55.3579C148.131 55.3742 148.233 55.4027 148.306 55.4434C148.379 55.4759 148.432 55.5166 148.465 55.5654C148.497 55.6143 148.514 55.6672 148.514 55.7241V70.2993ZM164.859 63.0361C164.859 64.4033 164.684 65.5996 164.334 66.625C163.984 67.6423 163.471 68.4886 162.796 69.1641C162.129 69.8314 161.307 70.3319 160.33 70.6655C159.354 70.9992 158.19 71.166 156.839 71.166H153.494C153.307 71.166 153.128 71.105 152.957 70.9829C152.794 70.8527 152.713 70.6289 152.713 70.3115V56.2246C152.713 55.9072 152.794 55.6875 152.957 55.5654C153.128 55.4352 153.307 55.3701 153.494 55.3701H157.071C158.438 55.3701 159.594 55.5492 160.538 55.9072C161.482 56.2572 162.271 56.7658 162.906 57.4331C163.549 58.0923 164.033 58.8939 164.358 59.8379C164.692 60.7819 164.859 61.848 164.859 63.0361ZM162.649 63.1216C162.649 62.2671 162.544 61.4736 162.332 60.7412C162.12 60.0007 161.787 59.3618 161.331 58.8247C160.883 58.2876 160.314 57.8685 159.622 57.5674C158.93 57.2663 158.039 57.1157 156.949 57.1157H154.812V69.4082H156.973C157.982 69.4082 158.833 69.2821 159.524 69.0298C160.216 68.7775 160.794 68.391 161.258 67.8701C161.722 67.3493 162.068 66.6982 162.295 65.917C162.531 65.1276 162.649 64.1958 162.649 63.1216Z" fill="#35A29F"/>
</svg>
